<svg width="32" height="32" viewBox="0 0 32 32" fill="none" xmlns="http://www.w3.org/2000/svg">
<path opacity="0.4" d="M8 18.667C10.0537 18.667 11.0806 18.6668 11.835 19.1289C12.2571 19.3876 12.6124 19.7429 12.8711 20.165C13.3332 20.9194 13.333 21.9463 13.333 24C13.333 26.0537 13.3332 27.0806 12.8711 27.835C12.6124 28.2571 12.2571 28.6124 11.835 28.8711C11.0806 29.3332 10.0537 29.333 8 29.333C5.94633 29.333 4.91943 29.3332 4.16504 28.8711C3.7429 28.6124 3.38759 28.2571 3.12891 27.835C2.66677 27.0806 2.66699 26.0537 2.66699 24C2.66699 21.9463 2.66677 20.9194 3.12891 20.165C3.38759 19.7429 3.7429 19.3876 4.16504 19.1289C4.91943 18.6668 5.94633 18.667 8 18.667ZM24 2.66699C26.0537 2.66699 27.0806 2.66677 27.835 3.12891C28.2571 3.38759 28.6124 3.7429 28.8711 4.16504C29.3332 4.91943 29.333 5.94633 29.333 8C29.333 10.0537 29.3332 11.0806 28.8711 11.835C28.6124 12.2571 28.2571 12.6124 27.835 12.8711C27.0806 13.3332 26.0537 13.333 24 13.333C21.9463 13.333 20.9194 13.3332 20.165 12.8711C19.7429 12.6124 19.3876 12.2571 19.1289 11.835C18.6668 11.0806 18.667 10.0537 18.667 8C18.667 5.94633 18.6668 4.91943 19.1289 4.16504C19.3876 3.7429 19.7429 3.38759 20.165 3.12891C20.9194 2.66677 21.9463 2.66699 24 2.66699Z" fill="#113478"/>
<path fill-rule="evenodd" clip-rule="evenodd" d="M8.04883 17.667C9.03432 17.667 9.8447 17.6662 10.5 17.7285C11.1807 17.7933 11.7968 17.9329 12.3574 18.2764C12.9141 18.6175 13.3825 19.0859 13.7236 19.6426C14.0671 20.2032 14.2067 20.8193 14.2715 21.5C14.3338 22.1553 14.333 22.9657 14.333 23.9512V24.0488C14.333 25.0343 14.3338 25.8447 14.2715 26.5C14.2067 27.1807 14.0671 27.7968 13.7236 28.3574C13.3825 28.9141 12.9141 29.3825 12.3574 29.7236C11.7968 30.0671 11.1807 30.2067 10.5 30.2715C9.8447 30.3338 9.03432 30.333 8.04883 30.333H7.95117C6.96569 30.333 6.15531 30.3338 5.5 30.2715C4.81926 30.2067 4.20316 30.0671 3.64258 29.7236C3.08589 29.3825 2.61751 28.9141 2.27637 28.3574C1.93292 27.7968 1.79327 27.1807 1.72852 26.5C1.66621 25.8447 1.66698 25.0343 1.66699 24.0488V23.9512C1.66698 22.9657 1.66621 22.1553 1.72852 21.5C1.79327 20.8193 1.93292 20.2032 2.27637 19.6426C2.61751 19.0859 3.08589 18.6175 3.64258 18.2764C4.20316 17.9329 4.81926 17.7933 5.5 17.7285C6.15531 17.6662 6.96569 17.667 7.95117 17.667H8.04883ZM24.0488 17.667C25.0343 17.667 25.8447 17.6662 26.5 17.7285C27.1807 17.7933 27.7968 17.9329 28.3574 18.2764C28.9141 18.6175 29.3825 19.0859 29.7236 19.6426C30.0671 20.2032 30.2067 20.8193 30.2715 21.5C30.3338 22.1553 30.333 22.9657 30.333 23.9512V24.0488C30.333 25.0343 30.3338 25.8447 30.2715 26.5C30.2067 27.1807 30.0671 27.7968 29.7236 28.3574C29.3825 28.9141 28.9141 29.3825 28.3574 29.7236C27.7968 30.0671 27.1807 30.2067 26.5 30.2715C25.8447 30.3338 25.0343 30.333 24.0488 30.333H23.9512C22.9657 30.333 22.1553 30.3338 21.5 30.2715C20.8193 30.2067 20.2032 30.0671 19.6426 29.7236C19.0859 29.3825 18.6175 28.9141 18.2764 28.3574C17.9329 27.7968 17.7933 27.1807 17.7285 26.5C17.6662 25.8447 17.667 25.0343 17.667 24.0488V23.9512C17.667 22.9657 17.6662 22.1553 17.7285 21.5C17.7933 20.8193 17.9329 20.2032 18.2764 19.6426C18.6175 19.0859 19.0859 18.6175 19.6426 18.2764C20.2032 17.9329 20.8193 17.7933 21.5 17.7285C22.1553 17.6662 22.9657 17.667 23.9512 17.667H24.0488ZM8 19.667C6.95368 19.667 6.23892 19.6675 5.68946 19.7197C5.15528 19.7705 4.88114 19.8629 4.6875 19.9814C4.39992 20.1577 4.15768 20.3999 3.98145 20.6875C3.86286 20.8811 3.77054 21.1553 3.71973 21.6895C3.66748 22.2389 3.66699 22.9537 3.66699 24C3.66699 25.0463 3.66748 25.7611 3.71973 26.3105C3.77054 26.8447 3.86286 27.1189 3.98145 27.3125C4.15768 27.6001 4.39992 27.8423 4.6875 28.0186C4.88114 28.1371 5.15528 28.2295 5.68946 28.2803C6.23892 28.3325 6.95368 28.333 8 28.333C9.04632 28.333 9.76108 28.3325 10.3105 28.2803C10.8447 28.2295 11.1189 28.1371 11.3125 28.0186C11.6001 27.8423 11.8423 27.6001 12.0186 27.3125C12.1371 27.1189 12.2295 26.8447 12.2803 26.3105C12.3325 25.7611 12.333 25.0463 12.333 24C12.333 22.9537 12.3325 22.2389 12.2803 21.6895C12.2295 21.1553 12.1371 20.8811 12.0186 20.6875C11.8423 20.3999 11.6001 20.1577 11.3125 19.9814C11.1189 19.8629 10.8447 19.7705 10.3105 19.7197C9.76108 19.6675 9.04632 19.667 8 19.667ZM24 19.667C22.9537 19.667 22.2389 19.6675 21.6895 19.7197C21.1553 19.7705 20.8811 19.8629 20.6875 19.9814C20.3999 20.1577 20.1577 20.3999 19.9814 20.6875C19.8629 20.8811 19.7705 21.1553 19.7197 21.6895C19.6675 22.2389 19.667 22.9537 19.667 24C19.667 25.0463 19.6675 25.7611 19.7197 26.3105C19.7705 26.8447 19.8629 27.1189 19.9814 27.3125C20.1577 27.6001 20.3999 27.8423 20.6875 28.0186C20.8811 28.1371 21.1553 28.2295 21.6895 28.2803C22.2389 28.3325 22.9537 28.333 24 28.333C25.0463 28.333 25.7611 28.3325 26.3105 28.2803C26.8447 28.2295 27.1189 28.1371 27.3125 28.0186C27.6001 27.8423 27.8423 27.6001 28.0186 27.3125C28.1371 27.1189 28.2295 26.8447 28.2803 26.3105C28.3325 25.7611 28.333 25.0463 28.333 24C28.333 22.9537 28.3325 22.2389 28.2803 21.6895C28.2295 21.1553 28.1371 20.8811 28.0186 20.6875C27.8423 20.3999 27.6001 20.1577 27.3125 19.9814C27.1189 19.8629 26.8447 19.7705 26.3105 19.7197C25.7611 19.6675 25.0463 19.667 24 19.667ZM8.04883 1.66699C9.03432 1.66698 9.8447 1.66621 10.5 1.72852C11.1807 1.79327 11.7968 1.93292 12.3574 2.27637C12.9141 2.61751 13.3825 3.08589 13.7236 3.64258C14.0671 4.20316 14.2067 4.81926 14.2715 5.5C14.3338 6.15531 14.333 6.96569 14.333 7.95117V8.04883C14.333 9.03432 14.3338 9.8447 14.2715 10.5C14.2067 11.1807 14.0671 11.7968 13.7236 12.3574C13.3825 12.9141 12.9141 13.3825 12.3574 13.7236C11.7968 14.0671 11.1807 14.2067 10.5 14.2715C9.8447 14.3338 9.03432 14.333 8.04883 14.333H7.95117C6.96569 14.333 6.15531 14.3338 5.5 14.2715C4.81926 14.2067 4.20316 14.0671 3.64258 13.7236C3.08589 13.3825 2.61751 12.9141 2.27637 12.3574C1.93292 11.7968 1.79327 11.1807 1.72852 10.5C1.66621 9.8447 1.66698 9.03432 1.66699 8.04883V7.95117C1.66698 6.96569 1.66621 6.15531 1.72852 5.5C1.79327 4.81926 1.93292 4.20316 2.27637 3.64258C2.61751 3.08589 3.08589 2.61751 3.64258 2.27637C4.20316 1.93292 4.81926 1.79327 5.5 1.72852C6.15531 1.66621 6.96569 1.66698 7.95117 1.66699H8.04883ZM24.0488 1.66699C25.0343 1.66698 25.8447 1.66621 26.5 1.72852C27.1807 1.79327 27.7968 1.93292 28.3574 2.27637C28.9141 2.61751 29.3825 3.08589 29.7236 3.64258C30.0671 4.20316 30.2067 4.81926 30.2715 5.5C30.3338 6.15531 30.333 6.96569 30.333 7.95117V8.04883C30.333 9.03432 30.3338 9.8447 30.2715 10.5C30.2067 11.1807 30.0671 11.7968 29.7236 12.3574C29.3825 12.9141 28.9141 13.3825 28.3574 13.7236C27.7968 14.0671 27.1807 14.2067 26.5 14.2715C25.8447 14.3338 25.0343 14.333 24.0488 14.333H23.9512C22.9657 14.333 22.1553 14.3338 21.5 14.2715C20.8193 14.2067 20.2032 14.0671 19.6426 13.7236C19.0859 13.3825 18.6175 12.9141 18.2764 12.3574C17.9329 11.7968 17.7933 11.1807 17.7285 10.5C17.6662 9.8447 17.667 9.03432 17.667 8.04883V7.95117C17.667 6.96569 17.6662 6.15531 17.7285 5.5C17.7933 4.81926 17.9329 4.20316 18.2764 3.64258C18.6175 3.08589 19.0859 2.61751 19.6426 2.27637C20.2032 1.93292 20.8193 1.79327 21.5 1.72852C22.1553 1.66621 22.9657 1.66698 23.9512 1.66699H24.0488ZM8 3.66699C6.95368 3.66699 6.23892 3.66748 5.68946 3.71973C5.15528 3.77054 4.88114 3.86286 4.6875 3.98145C4.39992 4.15768 4.15768 4.39992 3.98145 4.6875C3.86286 4.88114 3.77054 5.15528 3.71973 5.68946C3.66748 6.23892 3.66699 6.95368 3.66699 8C3.66699 9.04632 3.66748 9.76108 3.71973 10.3105C3.77054 10.8447 3.86286 11.1189 3.98145 11.3125C4.15768 11.6001 4.39992 11.8423 4.6875 12.0186C4.88114 12.1371 5.15528 12.2295 5.68946 12.2803C6.23892 12.3325 6.95368 12.333 8 12.333C9.04632 12.333 9.76108 12.3325 10.3105 12.2803C10.8447 12.2295 11.1189 12.1371 11.3125 12.0186C11.6001 11.8423 11.8423 11.6001 12.0186 11.3125C12.1371 11.1189 12.2295 10.8447 12.2803 10.3105C12.3325 9.76108 12.333 9.04632 12.333 8C12.333 6.95368 12.3325 6.23892 12.2803 5.68946C12.2295 5.15528 12.1371 4.88114 12.0186 4.6875C11.8423 4.39992 11.6001 4.15768 11.3125 3.98145C11.1189 3.86286 10.8447 3.77054 10.3105 3.71973C9.76108 3.66748 9.04632 3.66699 8 3.66699ZM24 3.66699C22.9537 3.66699 22.2389 3.66748 21.6895 3.71973C21.1553 3.77054 20.8811 3.86286 20.6875 3.98145C20.3999 4.15768 20.1577 4.39992 19.9814 4.6875C19.8629 4.88114 19.7705 5.15528 19.7197 5.68946C19.6675 6.23892 19.667 6.95368 19.667 8C19.667 9.04632 19.6675 9.76108 19.7197 10.3105C19.7705 10.8447 19.8629 11.1189 19.9814 11.3125C20.1577 11.6001 20.3999 11.8423 20.6875 12.0186C20.8811 12.1371 21.1553 12.2295 21.6895 12.2803C22.2389 12.3325 22.9537 12.333 24 12.333C25.0463 12.333 25.7611 12.3325 26.3105 12.2803C26.8447 12.2295 27.1189 12.1371 27.3125 12.0186C27.6001 11.8423 27.8423 11.6001 28.0186 11.3125C28.1371 11.1189 28.2295 10.8447 28.2803 10.3105C28.3325 9.76108 28.333 9.04632 28.333 8C28.333 6.95368 28.3325 6.23892 28.2803 5.68946C28.2295 5.15528 28.1371 4.88114 28.0186 4.6875C27.8423 4.39992 27.6001 4.15768 27.3125 3.98145C27.1189 3.86286 26.8447 3.77054 26.3105 3.71973C25.7611 3.66748 25.0463 3.66699 24 3.66699Z" fill="#113478"/>
</svg>
