<svg width="24" height="24" viewBox="0 0 24 24" fill="none" xmlns="http://www.w3.org/2000/svg">
<path d="M1.25 12C1.25 17.937 6.063 22.75 12 22.75C17.937 22.75 22.75 17.937 22.75 12C22.75 9.89 22.142 7.92099 21.091 6.26099C20.947 6.03199 20.874 5.91799 20.746 5.89399C20.617 5.86999 20.508 5.95099 20.29 6.11299C19.849 6.43999 19.401 6.81498 18.951 7.22798C17.787 8.29898 16.664 9.57401 15.679 10.81C14.697 12.044 13.863 13.225 13.275 14.098C12.981 14.533 12.75 14.891 12.592 15.139C12.514 15.263 12.454 15.359 12.413 15.423L12.369 15.496L12.358 15.514L12.355 15.518C12.172 15.82 11.841 16.004 11.487 16C11.133 15.995 10.807 15.803 10.632 15.496C9.68298 13.835 8.898 13.087 8.427 12.757C8.192 12.592 8.03301 12.53 7.96201 12.507C7.96201 12.507 7.956 12.505 7.948 12.503C7.941 12.503 7.92902 12.499 7.92202 12.498C7.91402 12.496 7.90599 12.496 7.88799 12.494C7.38899 12.438 7 12.014 7 11.5C7 10.947 7.448 10.5 8 10.5C8.079 10.491 8.30299 10.5 8.56899 10.602C8.84199 10.689 9.183 10.845 9.573 11.118C10.103 11.489 10.719 12.071 11.39 12.984C11.446 13.061 11.563 13.06 11.616 12.98C12.225 12.077 13.09 10.851 14.115 9.56401C15.137 8.28001 16.331 6.92001 17.598 5.75601C18.007 5.38001 18.43 5.01901 18.863 4.68501C19.139 4.47201 19.277 4.365 19.28 4.221C19.283 4.078 19.158 3.97299 18.908 3.76299C17.04 2.19499 14.63 1.25 12 1.25C6.063 1.25 1.25 6.063 1.25 12Z" fill="#16A34A"/>
</svg>
