<svg width="40" height="40" viewBox="0 0 40 40" fill="none" xmlns="http://www.w3.org/2000/svg">
<path opacity="0.4" d="M34.1663 22.5C34.1663 30.324 27.8237 36.6667 19.9997 36.6667C12.1756 36.6667 5.83301 30.324 5.83301 22.5C5.83301 14.676 12.1756 8.33334 19.9997 8.33334C27.8237 8.33334 34.1663 14.676 34.1663 22.5Z" fill="#113478"/>
<path fill-rule="evenodd" clip-rule="evenodd" d="M20 2.08301C22.071 2.08301 23.7498 3.76209 23.75 5.83301C23.75 6.41442 23.617 6.96492 23.3809 7.45605C30.2689 8.9973 35.417 15.1471 35.417 22.5C35.417 31.0144 28.5144 37.917 20 37.917C11.4856 37.917 4.58301 31.0144 4.58301 22.5C4.58301 15.1474 9.73058 8.99764 16.6182 7.45605C16.3821 6.96502 16.25 6.41426 16.25 5.83301C16.2502 3.76209 17.929 2.08301 20 2.08301ZM20 9.58301C12.8663 9.58301 7.08301 15.3663 7.08301 22.5C7.08301 29.6337 12.8663 35.417 20 35.417C27.1337 35.417 32.917 29.6337 32.917 22.5C32.917 15.3663 27.1337 9.58301 20 9.58301ZM20 12.083C20.6902 12.083 21.2498 12.6428 21.25 13.333C21.25 14.0234 20.6904 14.583 20 14.583C15.6277 14.583 12.083 18.1277 12.083 22.5C12.083 26.8723 15.6277 30.417 20 30.417C20.6904 30.417 21.25 30.9766 21.25 31.667C21.2498 32.3572 20.6902 32.917 20 32.917C14.247 32.917 9.58301 28.253 9.58301 22.5C9.58301 16.747 14.247 12.083 20 12.083ZM23.96 14.3066C24.3429 13.7323 25.119 13.577 25.6934 13.96C26.2677 14.3429 26.4229 15.119 26.04 15.6934L21.04 23.1934C20.6571 23.7678 19.881 23.9229 19.3066 23.54C18.7322 23.1571 18.577 22.3811 18.96 21.8066L23.96 14.3066ZM20 4.58301C19.3098 4.58301 18.7502 5.1428 18.75 5.83301C18.75 6.52336 19.3096 7.08301 20 7.08301C20.6904 7.08301 21.25 6.52336 21.25 5.83301C21.2498 5.1428 20.6902 4.58301 20 4.58301Z" fill="#113478"/>
</svg>
