<svg width="16" height="16" viewBox="0 0 16 16" fill="none" xmlns="http://www.w3.org/2000/svg">
<path d="M12.083 9.25C13.8297 9.25 15.25 10.6703 15.25 12.417C15.25 14.1637 13.8297 15.584 12.083 15.584C10.3365 15.5838 8.91699 14.1636 8.91699 12.417C8.91699 10.6704 10.3365 9.25018 12.083 9.25ZM11.6768 1.25C12.0366 1.25004 12.3231 1.5435 12.3232 1.90332V2.33008H12.3369C13.1168 2.43676 13.7769 2.66364 14.2969 3.18359C14.8168 3.70357 15.0437 4.36362 15.1504 5.14355C15.2504 5.89689 15.25 6.85061 15.25 8.04395V8.74414C15.2497 9.10392 14.9565 9.39746 14.5967 9.39746C14.2368 9.39746 13.9505 9.10392 13.9502 8.74414V7.11719H3.5498V9.39746C3.5498 10.6436 3.55011 11.5101 3.63672 12.1699C3.72337 12.8098 3.8831 13.1438 4.12305 13.3838C4.36305 13.6238 4.69691 13.7833 5.33691 13.8633C5.99023 13.9499 6.85697 13.9502 8.10352 13.9502C8.45673 13.9503 8.74992 14.2436 8.75 14.6035C8.75 14.9635 8.45678 15.2567 8.10352 15.2568H8.0498C6.86988 15.2568 5.90972 15.2572 5.16309 15.1572C4.38318 15.0505 3.72308 14.8237 3.20312 14.3037C2.6832 13.7837 2.45627 13.1237 2.34961 12.3438C2.24961 11.5904 2.25 10.6367 2.25 9.44336V8.04395C2.25 6.85728 2.24961 5.89689 2.34961 5.14355C2.45627 4.36362 2.6832 3.70357 3.20312 3.18359C3.72308 2.66364 4.38318 2.43676 5.16309 2.33008H5.17676V1.90332C5.17694 1.5435 5.46339 1.25004 5.82324 1.25C6.18313 1.25 6.47638 1.54347 6.47656 1.90332V2.24414C6.94985 2.23081 7.46987 2.23047 8.0498 2.23047H9.4502C10.0301 2.23047 10.5501 2.23081 11.0234 2.24414V1.90332C11.0236 1.54347 11.3169 1.25 11.6768 1.25ZM12.083 10.584C11.8098 10.5842 11.583 10.8108 11.583 11.084V12.417C11.583 12.5503 11.6371 12.6772 11.7305 12.7705L12.3965 13.4365C12.5898 13.6299 12.9102 13.6299 13.1035 13.4365C13.2965 13.2432 13.2966 12.9237 13.1035 12.7305L12.583 12.21V11.084C12.583 10.8107 12.3563 10.584 12.083 10.584Z" fill="#113478"/>
</svg>
