<svg width="24" height="24" viewBox="0 0 24 24" fill="none" xmlns="http://www.w3.org/2000/svg">
<path d="M23.5861 19.8628H0.413811C0.185296 19.8628 0 19.6775 0 19.449V4.55248C0 4.32397 0.185296 4.13867 0.413811 4.13867H23.5861C23.8147 4.13867 24 4.32397 24 4.55248V19.449C23.9999 19.6775 23.8146 19.8628 23.5861 19.8628Z" fill="#41479B"/>
<path d="M23.9999 4.55248C23.9999 4.32397 23.8146 4.13867 23.5861 4.13867H21.7348L14.0689 9.16117V4.13867H9.93095V9.16117L2.26508 4.13867H0.413811C0.185296 4.13867 0 4.32397 0 4.55248V5.62268L6.57696 9.93174H0V14.0697H6.57696L0 18.3788V19.449C0 19.6775 0.185296 19.8628 0.413811 19.8628H2.26513L9.93104 14.8403V19.8628H14.069V14.8403L21.7349 19.8628H23.5862C23.8147 19.8628 24 19.6775 24 19.449V18.3788L17.423 14.0697H23.9999V9.93179H17.4229L23.9999 5.62268V4.55248Z" fill="#F5F5F5"/>
<path d="M23.9999 10.7594H13.2413V4.13867H10.7586V10.7594H0V13.2421H10.7586V19.8628H13.2413V13.2421H23.9999V10.7594Z" fill="#FF4B55"/>
<path d="M8.38815 14.0703L0.0117188 19.5077C0.0410155 19.7075 0.20578 19.8634 0.413764 19.8634H0.983715L9.90821 14.0704H8.38815V14.0703Z" fill="#FF4B55"/>
<path d="M16.2369 14.0703H14.7168L23.6283 19.8549C23.836 19.8327 23.9999 19.6631 23.9999 19.4496V19.1094L16.2369 14.0703Z" fill="#FF4B55"/>
<path d="M0 5.00993L7.58336 9.93245H9.10342L0.241077 4.17969C0.0995152 4.24545 0 4.38678 0 4.55314V5.00993Z" fill="#FF4B55"/>
<path d="M15.5894 9.93174L23.9859 4.48128C23.9511 4.28806 23.7898 4.13867 23.5865 4.13867H22.9937L14.0693 9.93174H15.5894Z" fill="#FF4B55"/>
</svg>
