<svg width="150" height="190" viewBox="0 0 150 190" fill="none" xmlns="http://www.w3.org/2000/svg">
<path d="M16.708 124.798L17.8646 124.948L21.2801 125.478L34.3978 127.601L82.5957 135.534L115.88 140.977L125.01 142.488C126.544 142.798 128.101 142.98 129.664 143.032C131.24 143.063 132.814 142.89 134.345 142.515C137.533 141.731 140.465 140.14 142.86 137.895C145.255 135.65 147.032 132.827 148.021 129.697C149.052 126.443 149.17 122.97 148.361 119.654C147.899 117.975 147.335 116.326 146.674 114.715C146.048 113.055 145.435 111.394 144.809 109.721C142.296 103.035 139.738 96.2311 137.135 89.3094C131.923 75.4161 126.534 61.0329 121.023 46.2959C118.302 38.9297 115.58 31.6724 112.859 24.5239C111.498 20.9315 110.137 17.3799 108.858 13.8419C107.889 10.8273 106.179 8.10369 103.886 5.91978C101.593 3.73588 98.7887 2.16131 95.7304 1.33988C92.672 0.518453 89.4566 0.476344 86.3777 1.2174C83.2989 1.95846 80.4548 3.45907 78.1052 5.58217C76.853 6.7901 75.6888 8.08613 74.6217 9.46032C72.4082 12.1818 70.2128 14.8444 68.0356 17.448L21.9197 73.3341C15.388 81.3081 9.35989 88.4521 4.22985 94.8204C2.03027 97.9144 0.811843 101.598 0.732745 105.393C0.683213 108.584 1.41673 111.738 2.8691 114.579C4.01577 116.85 5.60229 118.872 7.53652 120.525C8.96622 121.726 10.5609 122.716 12.2719 123.464C13.3288 123.92 14.421 124.288 15.5377 124.567C16.2861 124.73 16.6807 124.839 16.6807 124.839C16.6807 124.839 16.2861 124.839 15.5105 124.635C12.7588 124.042 10.174 122.843 7.94464 121.124C5.7153 119.406 3.89762 117.211 2.62417 114.701C1.12713 111.829 0.360689 108.632 0.392556 105.393C0.449541 101.521 1.67304 97.7555 3.90328 94.5891C9.00611 88.1527 14.9934 80.9816 21.5114 73.0211L67.5049 17.0397L74.091 9.03849C75.1668 7.63386 76.3497 6.31453 77.6289 5.0923C78.9962 3.85788 80.5309 2.82258 82.1875 2.017C84.7154 0.77475 87.4806 0.0897237 90.2961 0.0082365C93.1117 -0.0732507 95.9119 0.450698 98.5075 1.54466C101.103 2.63862 103.433 4.2771 105.341 6.34932C107.249 8.42155 108.69 10.8792 109.566 13.5562C110.927 17.0942 112.287 20.6457 113.566 24.2381C116.288 31.4093 119.009 38.7029 121.731 46.0102C127.256 60.7471 132.617 75.1303 137.842 89.0372C140.437 95.9771 142.986 102.781 145.49 109.449L147.354 114.429C148.023 116.068 148.595 117.744 149.069 119.45C149.896 122.884 149.769 126.479 148.701 129.846C147.672 133.08 145.831 135.995 143.353 138.313C140.875 140.631 137.844 142.275 134.549 143.086C132.963 143.461 131.335 143.635 129.705 143.603C128.109 143.55 126.521 143.363 124.956 143.046L115.839 141.521L82.5685 135.929L34.4114 127.764L21.3209 125.519L17.919 124.92L16.708 124.798Z" fill="#263572"/>
<path d="M93.0724 6.33042C90.7195 5.90316 88.2952 6.11316 86.0508 6.93865C83.8065 7.76413 81.8238 9.17503 80.3085 11.025L9.46769 97.0519C7.97122 98.8893 6.98055 101.086 6.59369 103.424C6.20683 105.761 6.4372 108.16 7.26203 110.381C8.08685 112.603 9.4775 114.571 11.2964 116.089C13.1152 117.608 15.2992 118.626 17.6322 119.042L127.636 137.439C129.984 137.824 132.393 137.587 134.621 136.75C136.849 135.914 138.818 134.507 140.333 132.672C141.848 130.836 142.855 128.635 143.253 126.289C143.652 123.943 143.428 121.533 142.604 119.3L103.482 14.944C102.663 12.7165 101.268 10.7459 99.4393 9.23287C97.6108 7.71981 95.4139 6.71834 93.0724 6.33042Z" fill="#FDECD6"/>
<path d="M68.9881 101.937C69.1454 100.986 69.4939 100.077 70.0124 99.265C70.5309 98.4526 71.2087 97.7538 72.0049 97.2107C72.8011 96.6676 73.6991 96.2916 74.6447 96.1053C75.5902 95.919 76.5638 95.9264 77.5064 96.1269C78.433 96.2779 79.3207 96.6099 80.1189 97.104C80.9172 97.5981 81.6103 98.2445 82.1587 99.0065C82.7071 99.7684 83.1 100.631 83.3151 101.545C83.5301 102.458 83.5631 103.406 83.4121 104.332C83.2611 105.259 82.9291 106.147 82.435 106.945C81.941 107.743 81.2945 108.436 80.5326 108.984C79.7706 109.533 78.9081 109.926 77.9943 110.141C77.0805 110.356 76.1333 110.389 75.2068 110.238C74.2458 110.119 73.3188 109.807 72.4811 109.321C71.6435 108.835 70.9126 108.185 70.332 107.41C69.7514 106.635 69.3331 105.751 69.1022 104.811C68.8713 103.87 68.8325 102.893 68.9881 101.937ZM78.9352 44.7856L92.4203 46.9901L83.208 89.2415L74.1862 87.7719L78.9352 44.7856Z" fill="#F49E33"/>
<path d="M61.0951 132.201L49.5967 189.08H74.1855L84.2823 136.065L61.0951 132.201Z" fill="#323D4A"/>
</svg>
