<svg width="64" height="62" viewBox="0 0 64 62" fill="none" xmlns="http://www.w3.org/2000/svg">
    <path
        d="M64 30.6265C64 33.8817 59.924 36.4529 58.9704 39.3902C57.9819 42.4344 59.7338 46.9038 57.8897 49.4377C56.0272 51.9969 51.2228 51.7028 48.6635 53.5654C46.1296 55.4095 44.9349 60.0798 41.8908 61.0683C38.9535 62.022 35.2552 58.9769 32 58.9769C28.7449 58.9769 25.0466 62.022 22.1093 61.0683C19.0651 60.0798 17.8704 55.4095 15.3365 53.5654C12.7773 51.7028 7.97281 51.997 6.11027 49.4378C4.26615 46.9039 6.01804 42.4345 5.02966 39.3902C4.07596 36.453 0 33.8817 0 30.6266C0 27.3715 4.07596 24.8002 5.02966 21.863C6.01812 18.8187 4.26623 14.3493 6.11035 11.8154C7.97289 9.25622 12.7773 9.55028 15.3366 7.68782C17.8705 5.8437 19.0651 1.17341 22.1093 0.184948C25.0466 -0.768753 28.7449 2.27631 32 2.27631C35.2552 2.27631 38.9535 -0.768753 41.8908 0.184948C44.935 1.17341 46.1297 5.8437 48.6636 7.68782C51.2228 9.55036 56.0273 9.25622 57.8898 11.8155C59.7339 14.3494 57.982 18.8188 58.9704 21.863C59.9241 24.8001 64 27.3714 64 30.6265Z"
        fill="url(#paint0_linear_2519_12364)" />
    <path
        d="M34.6325 31.0882L41.5644 24.1564C42.266 23.4548 42.266 22.3157 41.5644 21.6141C40.8615 20.9125 39.7237 20.9125 39.0208 21.6141L32.0902 28.5459L25.1584 21.6141C24.4568 20.9125 23.3177 20.9125 22.6161 21.6141C21.9132 22.3157 21.9132 23.4548 22.6161 24.1564L29.5479 31.0882L22.6161 38.0188C21.9132 38.7217 21.9132 39.8594 22.6161 40.5624C22.9669 40.9131 23.4267 41.0879 23.8879 41.0879C24.3477 41.0879 24.8076 40.9131 25.1584 40.5624L32.0902 33.6305L39.0208 40.5624C39.3729 40.9131 39.8327 41.0879 40.2925 41.0879C40.7524 41.0879 41.2122 40.9131 41.5644 40.5624C42.266 39.8594 42.266 38.7217 41.5644 38.0188L34.6325 31.0882Z"
        fill="white" />
    <defs>
        <linearGradient id="paint0_linear_2519_12364" x1="-5.34241e-07" y1="38.3296" x2="64"
            y2="22.9236" gradientUnits="userSpaceOnUse">
            <stop stop-color="#A60000" />
            <stop offset="0.764299" stop-color="#D00000" />
        </linearGradient>
    </defs>
</svg>
