<svg width="32" height="32" viewBox="0 0 32 32" fill="none" xmlns="http://www.w3.org/2000/svg">
<path opacity="0.4" fill-rule="evenodd" clip-rule="evenodd" d="M4.52149 5.18824C2.6665 7.04323 2.6665 10.0288 2.6665 15.9999C2.6665 21.971 2.6665 24.9566 4.52149 26.8116C6.37648 28.6666 9.36205 28.6666 15.3332 28.6666C21.3043 28.6666 24.2899 28.6666 26.1448 26.8116C27.9998 24.9566 27.9998 21.971 27.9998 15.9999C27.9998 10.0288 27.9998 7.04323 26.1448 5.18824C24.2899 3.33325 21.3043 3.33325 15.3332 3.33325C9.36205 3.33325 6.37648 3.33325 4.52149 5.18824ZM14.6436 10.7119C13.7062 10.008 12.1459 9.56607 10.3581 10.6627C8.01188 12.1019 7.48098 16.8498 12.8929 20.8555C13.9237 21.6184 14.439 21.9999 15.3332 21.9999C16.2273 21.9999 16.7427 21.6184 17.7735 20.8555C23.1854 16.8498 22.6545 12.1019 20.3082 10.6627C18.5204 9.56607 16.9601 10.008 16.0227 10.7119C15.6384 11.0006 15.4462 11.1449 15.3332 11.1449C15.2201 11.1449 15.0279 11.0006 14.6436 10.7119Z" fill="#113478"/>
<path d="M15.4092 2.33301C18.3301 2.33299 20.6248 2.3334 22.416 2.57422C24.2515 2.821 25.7083 3.33719 26.8525 4.48145C27.9965 5.62557 28.512 7.08182 28.7588 8.91699C28.9996 10.7082 29 13.0029 29 15.9238V16.0762C29 18.9971 28.9996 21.2918 28.7588 23.083C28.512 24.9182 27.9965 26.3744 26.8525 27.5186C25.7083 28.6628 24.2515 29.179 22.416 29.4258C20.6248 29.6666 18.3301 29.667 15.4092 29.667H15.2568C12.3362 29.667 10.0421 29.6666 8.25098 29.4258C6.41543 29.179 4.95872 28.6628 3.81445 27.5186C2.67037 26.3744 2.15401 24.9183 1.90723 23.083C1.6664 21.2918 1.66697 18.9971 1.66699 16.0762V15.9238C1.66697 13.0029 1.6664 10.7082 1.90723 8.91699C2.15402 7.08169 2.67037 5.62562 3.81445 4.48145C4.95872 3.33718 6.41543 2.821 8.25098 2.57422C10.0421 2.33344 12.3362 2.33299 15.2568 2.33301H15.4092ZM15.333 4.33301C12.3195 4.33301 10.16 4.33586 8.51758 4.55664C6.90381 4.77361 5.93924 5.18478 5.22852 5.89551C4.51793 6.60618 4.10661 7.57011 3.88965 9.18359C3.66882 10.8261 3.66699 12.9862 3.66699 16C3.66699 19.0138 3.66882 21.1739 3.88965 22.8164C4.10661 24.4299 4.51793 25.3938 5.22852 26.1045C5.93924 26.8152 6.90381 27.2264 8.51758 27.4434C10.16 27.6641 12.3195 27.667 15.333 27.667C18.3468 27.667 20.5069 27.6642 22.1494 27.4434C23.7631 27.2264 24.7268 26.8151 25.4375 26.1045C26.1482 25.3938 26.5604 24.43 26.7773 22.8164C26.9982 21.1739 27 19.0138 27 16C27 12.9862 26.9982 10.8261 26.7773 9.18359C26.5604 7.56996 26.1482 6.6062 25.4375 5.89551C24.7268 5.18488 23.7631 4.77359 22.1494 4.55664C20.5069 4.33581 18.3468 4.33301 15.333 4.33301ZM15.4229 9.91309C16.6395 8.99945 18.6444 8.46941 20.8311 9.81055C22.4062 10.7767 23.2334 12.7514 22.9414 14.9297C22.6466 17.1276 21.2359 19.5382 18.3691 21.6602L18.2568 21.7422C17.3257 22.4328 16.5605 23 15.333 23C14.1058 22.9999 13.3412 22.4327 12.4102 21.7422L12.2979 21.6602C9.43102 19.5382 8.02037 17.1276 7.72559 14.9297C7.43356 12.7514 8.26083 10.7767 9.83594 9.81055C12.0226 8.46943 14.0275 8.99944 15.2441 9.91309L15.333 9.97949L15.4229 9.91309ZM19.7852 11.5156C18.3966 10.6641 17.281 11.0176 16.623 11.5117L16.6006 11.5293C16.4284 11.6586 16.2618 11.7838 16.124 11.874C16.0505 11.9222 15.9545 11.9805 15.8467 12.0293C15.7462 12.0747 15.5632 12.1455 15.333 12.1455C15.103 12.1454 14.9208 12.0747 14.8203 12.0293C14.7125 11.9806 14.6165 11.9222 14.543 11.874C14.4052 11.7839 14.2385 11.6586 14.0664 11.5293L14.043 11.5117C13.3849 11.0177 12.2692 10.664 10.8809 11.5156C10.11 11.9887 9.49929 13.1076 9.70801 14.6641C9.91418 16.2013 10.9433 18.1681 13.4883 20.0518C14.5667 20.85 14.8213 20.9999 15.333 21C15.8451 21 16.0999 20.8502 17.1787 20.0518C19.7236 18.1681 20.7528 16.2013 20.959 14.6641C21.1677 13.1074 20.5562 11.9886 19.7852 11.5156Z" fill="#113478"/>
</svg>
