<svg width="16" height="16" viewBox="0 0 16 16" fill="none" xmlns="http://www.w3.org/2000/svg">
<path d="M7.99789 0.832764C8.6974 0.832764 9.24841 1.36112 9.60018 2.07404L10.7749 4.44287C10.8105 4.51618 10.8949 4.61942 11.0219 4.71386C11.1487 4.80819 11.2729 4.86024 11.3546 4.87397L13.481 5.23018C14.2491 5.35925 14.8929 5.73576 15.1019 6.39136C15.3107 7.04642 15.0047 7.72717 14.4524 8.28053L14.4518 8.28107L12.7999 9.94667C12.7344 10.0127 12.6611 10.137 12.6151 10.2991C12.5694 10.46 12.5653 10.6066 12.5861 10.7013L12.5864 10.7026L13.059 12.763C13.255 13.6206 13.19 14.471 12.5852 14.9156C11.9783 15.3617 11.1489 15.1639 10.3955 14.7152L8.40219 13.5254C8.31849 13.4754 8.17473 13.4349 8.00122 13.4349C7.82898 13.4349 7.6822 13.4749 7.59305 13.5268L7.59179 13.5275L5.60241 14.7149C4.84986 15.1652 4.02152 15.3594 3.41456 14.9129C2.81015 14.4682 2.74192 13.6195 2.93856 12.7626L3.41109 10.7026L3.41138 10.7013C3.4321 10.6066 3.42804 10.46 3.38235 10.2991C3.33636 10.137 3.26301 10.0127 3.19754 9.94667L1.54439 8.27986C0.995586 7.72652 0.690626 7.04637 0.897787 6.39227C1.10555 5.73626 1.74811 5.3593 2.51671 5.23014L4.64137 4.87422L4.64204 4.87411C4.71994 4.8606 4.84229 4.80913 4.96881 4.71455C5.09556 4.61979 5.18022 4.51633 5.2159 4.44287L5.2177 4.43921L6.3909 2.07341L6.39137 2.07248C6.74646 1.36015 7.29918 0.832764 7.99789 0.832764Z" fill="#FFCC00"/>
</svg>
