<svg width="22" height="22" viewBox="0 0 22 22" fill="none" xmlns="http://www.w3.org/2000/svg">
<path opacity="0.4" fill-rule="evenodd" clip-rule="evenodd" d="M6.62667 6.60784C8.26681 5.60177 9.77078 5.99907 10.6833 6.68436C10.707 6.70212 10.7292 6.71879 10.7501 6.73449C10.771 6.71879 10.7932 6.70212 10.8169 6.68436C11.7294 5.99907 13.2334 5.60177 14.8735 6.60784C16.0549 7.33251 16.6753 8.8135 16.4562 10.4473C16.2351 12.0958 15.1767 13.9031 13.0265 15.4946C12.9984 15.5154 12.9706 15.536 12.9429 15.5566C12.2445 16.0746 11.6708 16.5001 10.7501 16.5001C9.82943 16.5001 9.2557 16.0746 8.55731 15.5566C8.52963 15.536 8.50176 15.5154 8.47367 15.4946C6.32352 13.9031 5.26511 12.0958 5.04403 10.4473C4.8249 8.8135 5.44527 7.33251 6.62667 6.60784ZM9.78255 7.8838C9.28904 7.51318 8.45247 7.2476 7.41097 7.88646C6.83268 8.24118 6.37412 9.08036 6.53071 10.2479C6.68534 11.4009 7.45731 12.8761 9.36606 14.2889C10.1751 14.8878 10.3661 15.0001 10.7501 15.0001C11.1341 15.0001 11.3251 14.8878 12.1341 14.2889C14.0429 12.8761 14.8149 11.4009 14.9695 10.2479C15.1261 9.08036 14.6675 8.24118 14.0892 7.88646C13.0477 7.2476 12.2112 7.51318 11.7177 7.8838L11.7004 7.89673C11.5713 7.99371 11.4465 8.08746 11.3432 8.1551C11.288 8.19125 11.216 8.23534 11.135 8.27195C11.0596 8.30601 10.9227 8.35879 10.7501 8.35879C10.5775 8.35879 10.4406 8.30601 10.3652 8.27195C10.2842 8.23534 10.2122 8.19125 10.157 8.1551C10.0537 8.08746 9.92888 7.99371 9.79976 7.89673L9.78255 7.8838Z" fill="#333333"/>
<path fill-rule="evenodd" clip-rule="evenodd" d="M10.75 20C5.64137 20 1.5 15.8586 1.5 10.75C1.5 5.64137 5.64137 1.5 10.75 1.5C15.8586 1.5 20 5.64137 20 10.75C20 15.8586 15.8586 20 10.75 20ZM0 10.75C0 16.6871 4.81294 21.5 10.75 21.5C16.6871 21.5 21.5 16.6871 21.5 10.75C21.5 4.81294 16.6871 0 10.75 0C4.81294 0 0 4.81294 0 10.75Z" fill="#333333"/>
</svg>
