<svg width="29" height="29" viewBox="0 0 29 29" fill="none" xmlns="http://www.w3.org/2000/svg">
<path fill-rule="evenodd" clip-rule="evenodd" d="M14.3338 0C15.4883 0.000101107 16.5204 0.368917 17.6346 0.994141C18.7145 1.60012 19.9527 2.49506 21.5086 3.62012L23.5204 5.0752C24.7689 5.97793 25.7662 6.69884 26.5184 7.36621C27.2951 8.05534 27.8764 8.74229 28.245 9.60645C28.6144 10.4725 28.7037 11.3603 28.6542 12.3838C28.6063 13.3714 28.4235 14.563 28.1952 16.0488L27.7743 18.7842C27.4498 20.8958 27.1919 22.5777 26.8124 23.8877C26.4198 25.2423 25.8661 26.3176 24.8778 27.1396C23.8936 27.9582 22.7211 28.3231 21.2889 28.4971C19.8958 28.6662 18.1384 28.666 15.9188 28.666H12.7479C10.5283 28.666 8.77093 28.6663 7.37778 28.4971C5.9456 28.3231 4.77313 27.9582 3.78892 27.1396C2.80059 26.3176 2.24687 25.2423 1.85435 23.8877C1.47479 22.5777 1.21691 20.8958 0.892433 18.7842L0.471535 16.0488C0.24319 14.563 0.060367 13.3714 0.0125504 12.3838C-0.0370022 11.3603 0.0523381 10.4725 0.42173 9.60645C0.79032 8.74229 1.37159 8.05535 2.14829 7.36621C2.90048 6.69884 3.89779 5.97793 5.14634 5.0752L7.15806 3.62012C8.71405 2.49506 9.95221 1.60012 11.0321 0.994141C12.1465 0.368825 13.1792 0 14.3338 0ZM19.3856 20.1807C18.9333 19.5997 18.0956 19.4951 17.5145 19.9473C16.6869 20.5915 15.576 20.9999 14.3338 21C13.0915 21 11.9799 20.5916 11.1522 19.9473C10.5711 19.4952 9.73335 19.5997 9.28111 20.1807C8.82882 20.7617 8.93344 21.5994 9.5145 22.0518C10.8189 23.0671 12.5089 23.666 14.3338 23.666C16.1586 23.6659 17.8479 23.067 19.1522 22.0518C19.7333 21.5994 19.8379 20.7617 19.3856 20.1807Z" fill="#113478"/>
</svg>
