<svg width="32" height="32" viewBox="0 0 32 32" fill="none" xmlns="http://www.w3.org/2000/svg">
<path fill-rule="evenodd" clip-rule="evenodd" d="M16.0003 1.66699C17.1548 1.66709 18.1869 2.03591 19.3011 2.66113C20.381 3.26712 21.6191 4.16205 23.1751 5.28711L25.1869 6.74219C26.4354 7.64492 27.4327 8.36583 28.1849 9.0332C28.9616 9.72233 29.5429 10.4093 29.9115 11.2734C30.2809 12.1395 30.3702 13.0273 30.3207 14.0508C30.2728 15.0384 30.09 16.23 29.8617 17.7158L29.4408 20.4512C29.1163 22.5628 28.8584 24.2447 28.4789 25.5547C28.0863 26.9093 27.5326 27.9846 26.5443 28.8066C25.5601 29.6252 24.3876 29.9901 22.9554 30.1641C21.5623 30.3332 19.8049 30.333 17.5853 30.333H14.4144C12.1948 30.333 10.4374 30.3332 9.04429 30.1641C7.61211 29.9901 6.43964 29.6252 5.45542 28.8066C4.46709 27.9846 3.91337 26.9093 3.52085 25.5547C3.14129 24.2447 2.88341 22.5628 2.55894 20.4512L2.13804 17.7158C1.90969 16.23 1.72687 15.0384 1.67905 14.0508C1.6295 13.0273 1.71884 12.1395 2.08823 11.2734C2.45682 10.4093 3.03809 9.72234 3.8148 9.0332C4.56699 8.36583 5.56429 7.64492 6.81284 6.74219L8.82456 5.28711C10.3806 4.16205 11.6187 3.26712 12.6986 2.66113C13.813 2.03582 14.8457 1.66699 16.0003 1.66699ZM16.0003 3.66699C15.311 3.66699 14.6218 3.87518 13.6771 4.40527C12.7092 4.9484 11.5636 5.77422 9.94663 6.94336L8.02769 8.33203C6.72681 9.27261 5.81069 9.93595 5.14194 10.5293C4.48921 11.1084 4.13855 11.5651 3.92808 12.0586C3.7185 12.5501 3.63608 13.1069 3.6771 13.9541C3.71929 14.8254 3.88492 15.914 4.12339 17.4658L4.52476 20.0781C4.86244 22.2755 5.10359 23.8277 5.44273 24.998C5.77313 26.1383 6.16488 26.7964 6.73374 27.2695C7.30673 27.7461 8.05184 28.0289 9.2855 28.1787C10.5441 28.3315 12.1804 28.333 14.4818 28.333H17.5179C19.8193 28.333 21.4556 28.3315 22.7142 28.1787C23.9479 28.0289 24.693 27.7461 25.266 27.2695C25.8348 26.7964 26.2276 26.1383 26.558 24.998C26.8971 23.8277 27.1373 22.2754 27.475 20.0781L27.8763 17.4658C28.1148 15.914 28.2804 14.8254 28.3226 13.9541C28.3636 13.1069 28.2812 12.5501 28.0716 12.0586C27.8612 11.5651 27.5105 11.1085 26.8578 10.5293C26.189 9.93595 25.2729 9.27261 23.972 8.33203L22.0531 6.94336C20.4361 5.77422 19.2905 4.9484 18.3226 4.40527C17.3782 3.87531 16.6895 3.66709 16.0003 3.66699ZM19.3861 21.8779C19.8219 21.5388 20.4502 21.617 20.7894 22.0527C21.1282 22.4885 21.0501 23.1169 20.6146 23.4561C19.3699 24.4249 17.7523 24.9999 16.0003 25C14.2484 25 12.6308 24.4248 11.3861 23.4561C10.9504 23.1169 10.8715 22.4885 11.2103 22.0527C11.5495 21.6169 12.1788 21.5387 12.6146 21.8779C13.5018 22.5684 14.6854 23 16.0003 23C17.3153 22.9999 18.4989 22.5685 19.3861 21.8779Z" fill="#113478"/>
</svg>
