<svg width="32" height="32" viewBox="0 0 32 32" fill="none" xmlns="http://www.w3.org/2000/svg">
<g clip-path="url(#clip0_724_14069)">
<path d="M16.005 0C9.32565 0 7.3719 0.006875 6.9919 0.038125C5.62128 0.1525 4.76815 0.368125 3.83878 0.83125C3.12253 1.18687 2.55753 1.59938 2.00065 2.1775C0.985029 3.23125 0.370029 4.52812 0.147529 6.06938C0.0394039 6.8175 0.00752896 6.97062 0.00127896 10.7931C-0.00122104 12.0675 0.00127896 13.7444 0.00127896 15.9937C0.00127896 22.67 0.00877895 24.6219 0.040654 25.0012C0.151279 26.3356 0.360654 27.175 0.803779 28.0931C1.65065 29.8506 3.26753 31.17 5.1719 31.6625C5.83128 31.8325 6.56003 31.9256 7.49503 31.97C7.89128 31.9875 11.93 31.9994 15.9713 31.9994C20.0125 31.9994 24.0532 31.9944 24.44 31.975C25.5232 31.9237 26.1519 31.8394 26.8469 31.66C28.7638 31.165 30.3513 29.8656 31.215 28.0831C31.6494 27.1869 31.8694 26.3156 31.9694 25.0513C31.9913 24.7756 32 20.3794 32 15.9894C32 11.5988 31.99 7.21062 31.9688 6.935C31.8682 5.65 31.6475 4.78562 31.1994 3.8725C30.8313 3.125 30.4232 2.56625 29.83 1.99563C28.7713 0.984375 27.4769 0.36875 25.9344 0.14625C25.1863 0.03875 25.0375 0.006875 21.2132 0H16.005Z" fill="#637174"/>
<path d="M16.005 0C9.32565 0 7.3719 0.006875 6.9919 0.038125C5.62128 0.1525 4.76815 0.368125 3.83878 0.83125C3.12253 1.18687 2.55753 1.59938 2.00065 2.1775C0.985029 3.23125 0.370029 4.52812 0.147529 6.06938C0.0394039 6.8175 0.00752896 6.97062 0.00127896 10.7931C-0.00122104 12.0675 0.00127896 13.7444 0.00127896 15.9937C0.00127896 22.67 0.00877895 24.6219 0.040654 25.0012C0.151279 26.3356 0.360654 27.175 0.803779 28.0931C1.65065 29.8506 3.26753 31.17 5.1719 31.6625C5.83128 31.8325 6.56003 31.9256 7.49503 31.97C7.89128 31.9875 11.93 31.9994 15.9713 31.9994C20.0125 31.9994 24.0532 31.9944 24.44 31.975C25.5232 31.9237 26.1519 31.8394 26.8469 31.66C28.7638 31.165 30.3513 29.8656 31.215 28.0831C31.6494 27.1869 31.8694 26.3156 31.9694 25.0513C31.9913 24.7756 32 20.3794 32 15.9894C32 11.5988 31.99 7.21062 31.9688 6.935C31.8682 5.65 31.6475 4.78562 31.1994 3.8725C30.8313 3.125 30.4232 2.56625 29.83 1.99563C28.7713 0.984375 27.4769 0.36875 25.9344 0.14625C25.1863 0.03875 25.0375 0.006875 21.2132 0H16.005Z" fill="#637174"/>
<path d="M16.005 0C9.32565 0 7.3719 0.006875 6.9919 0.038125C5.62128 0.1525 4.76815 0.368125 3.83878 0.83125C3.12253 1.18687 2.55753 1.59938 2.00065 2.1775C0.985029 3.23125 0.370029 4.52812 0.147529 6.06938C0.0394039 6.8175 0.00752896 6.97062 0.00127896 10.7931C-0.00122104 12.0675 0.00127896 13.7444 0.00127896 15.9937C0.00127896 22.67 0.00877895 24.6219 0.040654 25.0012C0.151279 26.3356 0.360654 27.175 0.803779 28.0931C1.65065 29.8506 3.26753 31.17 5.1719 31.6625C5.83128 31.8325 6.56003 31.9256 7.49503 31.97C7.89128 31.9875 11.93 31.9994 15.9713 31.9994C20.0125 31.9994 24.0532 31.9944 24.44 31.975C25.5232 31.9237 26.1519 31.8394 26.8469 31.66C28.7638 31.165 30.3513 29.8656 31.215 28.0831C31.6494 27.1869 31.8694 26.3156 31.9694 25.0513C31.9913 24.7756 32 20.3794 32 15.9894C32 11.5988 31.99 7.21062 31.9688 6.935C31.8682 5.65 31.6475 4.78562 31.1994 3.8725C30.8313 3.125 30.4232 2.56625 29.83 1.99563C28.7713 0.984375 27.4769 0.36875 25.9344 0.14625C25.1863 0.03875 25.0375 0.006875 21.2132 0H16.005Z" fill="#637174"/>
<path d="M16.005 0C9.32565 0 7.3719 0.006875 6.9919 0.038125C5.62128 0.1525 4.76815 0.368125 3.83878 0.83125C3.12253 1.18687 2.55753 1.59938 2.00065 2.1775C0.985029 3.23125 0.370029 4.52812 0.147529 6.06938C0.0394039 6.8175 0.00752896 6.97062 0.00127896 10.7931C-0.00122104 12.0675 0.00127896 13.7444 0.00127896 15.9937C0.00127896 22.67 0.00877895 24.6219 0.040654 25.0012C0.151279 26.3356 0.360654 27.175 0.803779 28.0931C1.65065 29.8506 3.26753 31.17 5.1719 31.6625C5.83128 31.8325 6.56003 31.9256 7.49503 31.97C7.89128 31.9875 11.93 31.9994 15.9713 31.9994C20.0125 31.9994 24.0532 31.9944 24.44 31.975C25.5232 31.9237 26.1519 31.8394 26.8469 31.66C28.7638 31.165 30.3513 29.8656 31.215 28.0831C31.6494 27.1869 31.8694 26.3156 31.9694 25.0513C31.9913 24.7756 32 20.3794 32 15.9894C32 11.5988 31.99 7.21062 31.9688 6.935C31.8682 5.65 31.6475 4.78562 31.1994 3.8725C30.8313 3.125 30.4232 2.56625 29.83 1.99563C28.7713 0.984375 27.4769 0.36875 25.9344 0.14625C25.1863 0.03875 25.0375 0.006875 21.2132 0H16.005Z" fill="#637174"/>
<path d="M16.0062 4.1084C12.775 4.1084 12.3694 4.12277 11.1006 4.18027C9.83375 4.2384 8.96937 4.4384 8.21312 4.73277C7.43062 5.03652 6.76687 5.44277 6.10562 6.1034C5.44375 6.76402 5.0375 7.42777 4.7325 8.20902C4.4375 8.96527 4.23687 9.82965 4.18 11.0946C4.12312 12.3628 4.10812 12.7684 4.10812 15.9971C4.10812 19.2259 4.1225 19.6303 4.18 20.8984C4.23812 22.164 4.43875 23.0278 4.7325 23.784C5.03687 24.5659 5.44312 25.229 6.105 25.8903C6.76625 26.5515 7.43 26.959 8.21187 27.2628C8.96875 27.5565 9.83375 27.7571 11.1 27.8153C12.3694 27.8728 12.7744 27.8871 16.0056 27.8871C19.2369 27.8871 19.6412 27.8728 20.9106 27.8153C22.1775 27.7571 23.0431 27.5571 23.8 27.2628C24.5825 26.959 25.245 26.5521 25.9062 25.8909C26.5681 25.2303 26.9744 24.5665 27.2794 23.7853C27.5719 23.029 27.7725 22.1646 27.8319 20.8996C27.8887 19.6315 27.9037 19.2271 27.9037 15.9984C27.9037 12.7696 27.8887 12.364 27.8319 11.0959C27.7725 9.83027 27.5719 8.96652 27.2794 8.21027C26.9744 7.4284 26.5681 6.76527 25.9062 6.10402C25.2444 5.44277 24.5825 5.03652 23.7994 4.73277C23.0406 4.43902 22.1756 4.2384 20.9094 4.18027C19.64 4.12277 19.2362 4.1084 16.0037 4.1084H16.0062ZM14.9394 6.2509C15.2562 6.25027 15.6094 6.2509 16.0069 6.2509C19.1837 6.2509 19.56 6.26215 20.8144 6.31902C21.9744 6.37215 22.6037 6.5659 23.0231 6.7284C23.5781 6.94402 23.9744 7.20152 24.3906 7.61777C24.8069 8.03402 25.065 8.43027 25.2812 8.98527C25.4444 9.40402 25.6381 10.0328 25.6912 11.1921C25.7481 12.4453 25.7606 12.8221 25.7606 15.9946C25.7606 19.1678 25.7481 19.544 25.6912 20.7971C25.6381 21.9565 25.4444 22.5853 25.2812 23.004C25.0656 23.559 24.8075 23.954 24.3906 24.3696C23.9744 24.7859 23.5787 25.0434 23.0231 25.259C22.6044 25.4228 21.9744 25.6159 20.8144 25.6684C19.56 25.7253 19.1831 25.7378 16.0069 25.7378C12.83 25.7378 12.4531 25.7253 11.1994 25.6684C10.0394 25.6147 9.41 25.4215 8.99 25.2584C8.435 25.0428 8.03812 24.7853 7.62187 24.369C7.20562 23.9528 6.9475 23.5578 6.73125 23.0028C6.56812 22.584 6.37437 21.9553 6.32125 20.7959C6.26437 19.5428 6.25312 19.1659 6.25312 15.9915C6.25312 12.8165 6.26437 12.4421 6.32125 11.189C6.37437 10.0296 6.56812 9.4009 6.73125 8.98152C6.94687 8.42652 7.205 8.03027 7.62187 7.61402C8.03812 7.19777 8.435 6.94027 8.99 6.72402C9.40937 6.56027 10.0394 6.36715 11.1994 6.31402C12.2969 6.26465 12.7225 6.24965 14.94 6.24715L14.9394 6.2509ZM22.3575 8.22527C21.5694 8.22527 20.93 8.8634 20.93 9.65152C20.93 10.439 21.5694 11.0784 22.3575 11.0784C23.1456 11.0784 23.785 10.4396 23.785 9.65152C23.785 8.8634 23.1456 8.22465 22.3575 8.22527ZM16.0062 9.89215C12.6319 9.89215 9.89625 12.6259 9.89625 15.9978C9.89625 19.3696 12.6319 22.1021 16.0062 22.1021C19.3806 22.1021 22.115 19.3696 22.115 15.9978C22.115 12.6259 19.3806 9.89215 16.0062 9.89215ZM16.0062 12.0346C18.1962 12.0346 19.9725 13.809 19.9725 15.9978C19.9725 18.1865 18.1969 19.9609 16.0062 19.9609C13.8156 19.9609 12.04 18.1865 12.04 15.9978C12.0406 13.8084 13.8162 12.0346 16.0062 12.0346Z" fill="white"/>
</g>
<defs>
<clipPath id="clip0_724_14069">
<rect width="32" height="32" fill="white"/>
</clipPath>
</defs>
</svg>
