<svg width="32" height="32" viewBox="0 0 32 32" fill="none" xmlns="http://www.w3.org/2000/svg">
<path opacity="0.4" fill-rule="evenodd" clip-rule="evenodd" d="M24.9775 17.8604C25.9797 17.8603 26.7997 17.8606 27.4658 17.915C28.1552 17.9714 28.7779 18.0914 29.3594 18.3877C30.2696 18.8515 31.0099 19.5917 31.4736 20.502C31.7699 21.0834 31.8899 21.7062 31.9463 22.3955C32.0007 23.0616 32 23.8817 32 24.8838V24.9775C32 25.9798 32.0007 26.7997 31.9463 27.4658C31.89 28.1552 31.7698 28.7779 31.4736 29.3594C31.0099 30.2696 30.2695 31.0099 29.3594 31.4736C28.7779 31.7699 28.1552 31.8899 27.4658 31.9463C26.7997 32.0007 25.9797 32.001 24.9775 32.001H24.8838C23.8816 32.001 23.0616 32.0007 22.3955 31.9463C21.7061 31.89 21.0835 31.7699 20.502 31.4736C19.5918 31.0099 18.8515 30.2696 18.3877 29.3594C18.0915 28.7779 17.9714 28.1552 17.915 27.4658C17.8606 26.7997 17.8603 25.9798 17.8604 24.9775V24.8838C17.8603 23.8817 17.8606 23.0616 17.915 22.3955C17.9714 21.7062 18.0914 21.0834 18.3877 20.502C18.8515 19.5918 19.5918 18.8515 20.502 18.3877C21.0834 18.0915 21.7061 17.9714 22.3955 17.915C23.0617 17.8606 23.8815 17.8603 24.8838 17.8604H24.9775ZM7.11621 1.50862e-06C8.11846 -1.1131e-05 8.93834 -0.000715304 9.60449 0.0537124C10.294 0.110049 10.9165 0.231023 11.498 0.527345C12.4082 0.991082 13.1485 1.73052 13.6123 2.64063C13.9086 3.22222 14.0286 3.84563 14.085 4.53516C14.1394 5.20116 14.1397 6.02057 14.1397 7.02246V7.11621C14.1397 8.11841 14.1394 8.93836 14.085 9.60449C14.0286 10.2939 13.9085 10.9166 13.6123 11.498C13.1485 12.4083 12.4082 13.1485 11.498 13.6123C10.9165 13.9086 10.2939 14.0286 9.60449 14.085C8.93835 14.1394 8.11845 14.1397 7.11621 14.1397H7.02246C6.02056 14.1397 5.20116 14.1394 4.53516 14.085C3.84564 14.0286 3.22221 13.9086 2.64063 13.6123C1.73056 13.1485 0.991066 12.4082 0.527345 11.498C0.231079 10.9165 0.110043 10.294 0.0537124 9.60449C-0.000702612 8.93836 -1.11671e-05 8.11841 1.47136e-06 7.11621V7.02246C-1.11617e-05 6.02059 -0.000675686 5.20115 0.0537124 4.53516C0.110048 3.84563 0.231015 3.22222 0.527345 2.64063C0.991063 1.73073 1.73074 0.991063 2.64063 0.527345C3.22221 0.23101 3.84564 0.110049 4.53516 0.0537124C5.20115 -0.000672704 6.02059 -1.11253e-05 7.02246 1.50862e-06H7.11621Z" fill="#113478"/>
<path fill-rule="evenodd" clip-rule="evenodd" d="M7.11621 17.8604C8.11845 17.8604 8.93835 17.8606 9.60449 17.9151C10.2939 17.9714 10.9166 18.0915 11.498 18.3877C12.4082 18.8515 13.1485 19.5918 13.6123 20.502C13.9086 21.0835 14.0286 21.7062 14.085 22.3955C14.1394 23.0616 14.1397 23.8817 14.1397 24.8838V24.9776C14.1397 25.9798 14.1394 26.7997 14.085 27.4659C14.0286 28.1553 13.9086 28.7779 13.6123 29.3594C13.1485 30.2696 12.4082 31.0099 11.498 31.4737C10.9165 31.7699 10.2939 31.89 9.60449 31.9463C8.93836 32.0007 8.11843 32.001 7.11621 32.001H7.02246C6.02057 32.001 5.20116 32.0007 4.53516 31.9463C3.84564 31.89 3.22221 31.77 2.64063 31.4737C1.73054 31.0099 0.991072 30.2695 0.527345 29.3594C0.231034 28.7778 0.11005 28.1553 0.0537124 27.4659C-0.000714446 26.7997 -1.11333e-05 25.9798 1.50606e-06 24.9776V24.8838C-1.11314e-05 23.8817 -0.000709814 23.0616 0.0537124 22.3955C0.110062 21.7062 0.23107 21.0835 0.527345 20.502C0.991102 19.5919 1.73056 18.8515 2.64063 18.3877C3.22221 18.0914 3.84564 17.9714 4.53516 17.9151C5.20115 17.8607 6.02058 17.8604 7.02246 17.8604H7.11621ZM25.8145 0.800814C26.8052 0.228832 28.0259 0.228828 29.0166 0.800814C29.3853 1.01375 29.7156 1.34471 30.1006 1.7305L30.1846 1.81546L30.2695 1.89945C30.6553 2.28443 30.9863 2.61471 31.1992 2.98343C31.7712 3.97412 31.7712 5.19488 31.1992 6.18558C30.9863 6.55443 30.6555 6.88542 30.2695 7.27054L25.5205 12.0186C24.8644 12.6747 24.0721 12.9814 23.3604 13.1631C23.005 13.2538 22.6481 13.3191 22.3242 13.375L22.1533 13.4043C21.8871 13.4499 21.6464 13.4907 21.4111 13.541L21.3486 13.5547C20.9174 13.6471 20.4858 13.739 20.1289 13.7618C19.7356 13.7868 19.1646 13.7486 18.708 13.292C18.2515 12.8355 18.2133 12.2645 18.2383 11.8711C18.261 11.5141 18.3539 11.0827 18.4463 10.6514L18.459 10.5889C18.5093 10.3535 18.5511 10.1131 18.5967 9.84671L18.626 9.67581C18.6819 9.35201 18.7462 8.99497 18.8369 8.63968C19.0186 7.92792 19.3254 7.13564 19.9814 6.47953L24.7305 1.7305C25.1155 1.3447 25.4457 1.01372 25.8145 0.800814Z" fill="#113478"/>
</svg>
