<svg width="32" height="32" viewBox="0 0 32 32" fill="none" xmlns="http://www.w3.org/2000/svg">
<path fill-rule="evenodd" clip-rule="evenodd" d="M0 16C0 7.16344 7.16344 0 16 0C24.8366 0 32 7.16344 32 16C32 24.8366 24.8366 32 16 32C7.16344 32 0 24.8366 0 16ZM15.2558 7.44186C15.8723 7.44186 16.3721 7.94164 16.3721 8.55814V9.49479L23.4419 9.49479C24.0584 9.49479 24.5581 9.99456 24.5581 10.6111C24.5581 11.2276 24.0584 11.7273 23.4419 11.7273H20.5445C19.742 14.11 18.4003 16.3409 16.8913 18.3291L19.0902 20.6151C19.5176 21.0594 19.5039 21.766 19.0596 22.1934C18.6153 22.6208 17.9086 22.6071 17.4812 22.1628L15.4751 20.0772C14.1059 21.6678 12.6715 23.0822 11.3868 24.2636C10.933 24.6808 10.2268 24.6512 9.80954 24.1974C9.39224 23.7436 9.42184 23.0375 9.87565 22.6202C11.1804 21.4204 12.6206 19.994 13.969 18.4031C13.6289 17.9759 13.2775 17.5132 12.955 17.0661C12.4536 16.3706 11.9652 15.6352 11.7244 15.1185C11.464 14.5597 11.7059 13.8956 12.2646 13.6351C12.8234 13.3747 13.4876 13.6166 13.748 14.1754C13.8899 14.4798 14.2627 15.0625 14.7659 15.7603C14.9676 16.04 15.1811 16.3257 15.3944 16.6025C16.5289 15.0587 17.5045 13.4184 18.1687 11.7273H8.55814C7.94164 11.7273 7.44186 11.2276 7.44186 10.6111C7.44186 9.99456 7.94164 9.49479 8.55814 9.49479H14.1395V8.55814C14.1395 7.94164 14.6393 7.44186 15.2558 7.44186Z" fill="#113478"/>
</svg>
