<svg width="16" height="16" viewBox="0 0 16 16" fill="none" xmlns="http://www.w3.org/2000/svg">
<path d="M4.66699 12.5C4.66699 12.6637 4.81674 12.9919 5.46973 13.3184C6.08283 13.6249 6.97659 13.833 8 13.833C9.02341 13.833 9.91717 13.6249 10.5303 13.3184C11.1833 12.9919 11.333 12.6637 11.333 12.5H12.667C12.667 13.4408 11.9216 14.1134 11.127 14.5107C10.2923 14.928 9.18562 15.167 8 15.167C6.81438 15.167 5.70765 14.928 4.87305 14.5107C4.0784 14.1134 3.33301 13.4408 3.33301 12.5H4.66699ZM8 0.833008C10.8444 0.833008 13.1668 3.09826 13.167 5.91211C13.167 7.52559 12.5024 8.78219 11.2432 9.86621C10.4424 10.5556 9.01086 12.0598 8.41504 12.9453C8.32059 13.0857 8.16137 13.1696 7.99219 13.167C7.82297 13.1643 7.66614 13.076 7.57617 12.9326C7.01806 12.0433 5.56692 10.5636 4.75684 9.86621C3.49761 8.78219 2.83301 7.52559 2.83301 5.91211C2.83315 3.09826 5.15559 0.833008 8 0.833008ZM8 4C6.89543 4 6 4.89543 6 6C6 7.10457 6.89543 8 8 8C9.10457 8 10 7.10457 10 6C10 4.89543 9.10457 4 8 4Z" fill="#113478"/>
</svg>
