<svg width="32" height="32" viewBox="0 0 32 32" fill="none" xmlns="http://www.w3.org/2000/svg">
<path opacity="0.4" d="M1.23096 14.626V17.3739C1.23096 19.4369 1.23096 20.4684 1.41074 21.385C2.38878 26.3718 6.46519 28.5978 11.161 29.9224C13.1122 30.4727 14.0878 30.7479 14.8771 30.7672C18.2699 30.8502 20.8025 28.2698 20.9233 25.2307V6.76918C20.8025 3.73011 18.2699 1.14966 14.8771 1.23266C14.0878 1.25197 13.1122 1.52716 11.161 2.07752C6.46519 3.40205 2.38878 5.62809 1.41074 10.6148C1.23096 11.5315 1.23096 12.563 1.23096 14.626Z" fill="#DC2626"/>
<path fill-rule="evenodd" clip-rule="evenodd" d="M14.8467 0.00257152C18.9218 -0.097122 22.0062 3.01963 22.1533 6.72035C22.1802 7.39945 21.6508 7.97167 20.9717 7.99867C20.2926 8.02549 19.7204 7.49706 19.6934 6.818C19.5989 4.44061 17.6175 2.39631 14.9072 2.46253C14.3135 2.47706 13.5271 2.68917 11.4951 3.26234C6.90154 4.55803 3.45444 6.58809 2.61817 10.8512C2.46699 11.622 2.46192 12.5097 2.46192 14.6256V17.3737C2.46192 19.4897 2.46698 20.3772 2.61817 21.1481C3.45434 25.4114 6.90144 27.4422 11.4951 28.7379C13.527 29.311 14.3136 29.5222 14.9072 29.5368C17.6175 29.603 19.5989 27.5587 19.6934 25.1813C19.7205 24.5024 20.2927 23.9738 20.9717 24.0006C21.6507 24.0276 22.1801 24.5999 22.1533 25.2789C22.0063 28.9797 18.9218 32.0974 14.8467 31.9977C13.9 31.9745 12.7869 31.6605 11.041 31.1676C10.9708 31.1478 10.8994 31.1275 10.8272 31.1071C6.02924 29.7537 1.32306 27.3319 0.203132 21.6217C0.000109964 20.5866 -0.000131984 19.4439 6.51873e-06 17.527V14.4723C-0.000131782 12.5555 0.000115 11.4127 0.203132 10.3776C1.32316 4.66761 6.02932 2.2465 10.8272 0.893197C10.8995 0.872789 10.9708 0.852486 11.041 0.83265C12.787 0.339786 13.8999 0.0257759 14.8467 0.00257152ZM25.7842 11.0397C26.2579 10.5523 27.037 10.5407 27.5244 11.0143C27.6742 11.1598 27.9727 11.3989 28.418 11.7487C28.4502 11.774 28.4833 11.8007 28.5166 11.8268C28.9139 12.1386 29.3804 12.5046 29.8252 12.8815C30.3018 13.2853 30.7968 13.7373 31.1816 14.1891C31.3746 14.4156 31.5649 14.6713 31.7119 14.9459C31.8537 15.2108 32 15.5759 32 15.9996C32 16.4234 31.8537 16.7884 31.7119 17.0534C31.5649 17.328 31.3746 17.5836 31.1816 17.8102C30.7967 18.2622 30.3019 18.7148 29.8252 19.1188C29.3803 19.4957 28.9139 19.8616 28.5166 20.1735C28.4833 20.1996 28.4503 20.2253 28.418 20.2506C27.9726 20.6005 27.6742 20.8394 27.5244 20.985C27.0371 21.4587 26.258 21.4478 25.7842 20.9606C25.3104 20.4732 25.3212 19.6931 25.8086 19.2194C26.0738 18.9617 26.496 18.6304 26.8975 18.3151C26.9284 18.2908 26.9599 18.2664 26.9912 18.2418C27.3944 17.9253 27.8254 17.5866 28.2334 17.2409C28.2372 17.2376 28.2413 17.2343 28.2451 17.2311H12.7178C12.0381 17.231 11.4873 16.6793 11.4873 15.9996C11.4874 15.32 12.0382 14.7692 12.7178 14.7692H28.2451C28.2413 14.7659 28.2373 14.7627 28.2334 14.7594C27.8255 14.4137 27.3944 14.0749 26.9912 13.7584C26.9599 13.7339 26.9284 13.7095 26.8975 13.6852C26.4959 13.3697 26.0738 13.0377 25.8086 12.7799C25.3212 12.3062 25.3105 11.5271 25.7842 11.0397Z" fill="#DC2626"/>
</svg>
