<svg width="82" height="81" viewBox="0 0 82 81" fill="none" xmlns="http://www.w3.org/2000/svg">
<path d="M14.907 7.60124C14.878 11.8862 11.602 15.1532 7.41402 15.0712C3.10002 14.9872 0.00801817 11.8352 1.81675e-05 7.51324C-0.00898183 3.31124 3.32702 -0.0297556 7.50202 0.000244141C11.681 0.0302439 14.936 3.37124 14.907 7.60124Z" fill="#FF71EE"/>
<path d="M67.7332 7.36279C63.1862 4.49779 58.5542 4.37179 53.9072 7.33979C53.9082 7.12979 53.9192 6.92379 53.9382 6.71979C53.9432 6.66479 53.9492 6.60879 53.9562 6.55379C53.9602 6.52579 53.9632 6.49779 53.9672 6.46879C54.4222 3.02079 57.4372 -0.000206947 60.8572 -0.000206947C63.4492 -0.000206947 66.0082 1.35679 67.1372 4.22079C67.4902 5.11879 67.7032 6.16479 67.7332 7.36279Z" fill="#FF71EE"/>
<path d="M81.1261 64.1837L80.9771 18.0727L37.4041 18.2127L57.3691 51.7067L14.7261 19.9117C13.1301 18.7207 11.191 18.0797 9.20105 18.0827C4.10505 18.0917 -0.0169476 22.2337 5.23952e-05 27.3297L0.17105 80.2427L34.0801 80.1327C41.2661 80.1097 45.5191 72.0807 41.5031 66.1227L16.964 29.7167L70.4221 69.5767C74.8491 72.8767 81.1441 69.7057 81.1261 64.1837Z" fill="#FF71EE"/>
</svg>
