<svg width="100" height="29" viewBox="0 0 100 29" fill="none" xmlns="http://www.w3.org/2000/svg">
<path d="M76.5576 2.72412C76.5473 4.2597 75.3874 5.43004 73.9049 5.40083C72.3778 5.37091 71.2828 4.24131 71.2803 2.69275C71.2771 1.18674 72.4579 -0.0102758 73.9359 0.000180244C75.4152 0.0113573 76.5676 1.20838 76.5576 2.72412Z" fill="#FF71EE"/>
<path d="M95.2919 2.70068C93.6821 1.6742 92.0428 1.62877 90.3975 2.69239C90.3982 2.6174 90.4014 2.54312 90.4085 2.47029C90.4103 2.45082 90.4124 2.43063 90.4149 2.4108C90.416 2.40107 90.4171 2.39097 90.4185 2.38052C90.5795 1.14528 91.6471 0.062552 92.8578 0.0621915C93.7755 0.0621915 94.6813 0.548571 95.081 1.57505C95.206 1.89702 95.2815 2.27163 95.2919 2.70068Z" fill="#FF71EE"/>
<path d="M100 23.2456L99.9475 6.72281L84.5219 6.77328L91.5899 18.7752L76.4935 7.38153C75.9286 6.955 75.2421 6.72533 74.5375 6.72677C72.7333 6.72965 71.2742 8.21403 71.2803 10.0399L71.3408 29L83.345 28.9607C85.8891 28.952 87.3948 26.0756 85.9731 23.9408L77.2857 10.8954L96.2108 25.1778C97.7781 26.3608 100.007 25.2243 100 23.2456Z" fill="#FF71EE"/>
<path d="M16.5851 15.2713C16.0942 14.9735 15.5492 14.7125 14.9504 14.4889C14.3512 14.2654 13.756 14.0606 13.164 13.8742C12.7023 13.7375 12.2691 13.6013 11.8652 13.4642C11.4609 13.3276 11.1036 13.1787 10.7933 13.0172C10.4827 12.856 10.2376 12.6664 10.0574 12.4489C9.87644 12.2319 9.78668 11.9737 9.78668 11.6759C9.78668 11.1542 10.0496 10.7601 10.5768 10.493C11.1036 10.2262 11.7423 10.0924 12.4932 10.0924C13.0703 10.0924 13.7382 10.1793 14.4959 10.3531C15.2535 10.5272 16.029 10.8441 16.8234 11.3031L18.1442 9.32876C17.2202 8.79479 16.2784 8.38773 15.3184 8.1083C14.3584 7.82852 13.4165 7.68935 12.4932 7.68935C11.7134 7.68935 11.0099 7.78525 10.3819 7.97778C9.7539 8.17068 9.21281 8.44686 8.75792 8.80668C8.30339 9.16723 7.94967 9.59268 7.69711 10.083C7.44456 10.5741 7.3181 11.1171 7.3181 11.7131C7.3181 12.3465 7.45524 12.8903 7.72989 13.3431C8.00346 13.7967 8.37535 14.1846 8.84484 14.5077C9.31362 14.8307 9.84794 15.1101 10.4471 15.3459C11.0455 15.5821 11.6842 15.8118 12.3628 16.0353C12.9695 16.2217 13.4853 16.3894 13.9109 16.5383C14.3366 16.6875 14.6868 16.8271 14.9611 16.9576C15.2354 17.0878 15.4341 17.2276 15.5567 17.3766C15.6792 17.5258 15.7408 17.687 15.7408 17.8611C15.7408 18.2581 15.4808 18.6309 14.9611 18.9788C14.4413 19.3264 13.6983 19.6055 12.7312 19.8171C11.764 20.028 10.5949 20.1337 9.2235 20.1337C6.943 20.1337 5.23958 19.789 4.11394 19.1C2.98794 18.4106 2.42512 17.3578 2.42512 15.9419C2.42512 15.7065 2.44293 15.4206 2.47891 15.0849C2.51524 14.75 2.56903 14.3588 2.64134 13.9117L0.346598 13.5205C0.230828 13.9798 0.144267 14.4211 0.0869165 14.843C0.0288533 15.2652 0 15.6751 0 16.0728C0 17.4757 0.368327 18.6619 1.10427 19.6311C1.84021 20.5995 2.90494 21.3325 4.2981 21.829C5.69055 22.3254 7.36156 22.5742 9.31006 22.5742C10.3349 22.5742 11.2985 22.5057 12.2004 22.3694C13.1027 22.2328 13.922 22.0309 14.6583 21.7641C15.3942 21.4969 16.0258 21.1738 16.5526 20.7949C17.0795 20.4163 17.487 19.9848 17.7759 19.5002C18.0644 19.016 18.209 18.4816 18.209 17.8983C18.209 17.29 18.0609 16.7744 17.7652 16.3519C17.4688 15.93 17.0756 15.5695 16.5851 15.2713Z" fill="black"/>
<path d="M26.0684 14.9737C25.4044 14.9737 24.8305 14.8684 24.3471 14.6568C23.8634 14.4459 23.4883 14.1603 23.2215 13.7998C22.954 13.4399 22.8208 13.0361 22.8208 12.589C22.8208 12.1048 22.9647 11.67 23.2539 11.2849C23.5421 10.9002 23.9357 10.593 24.4337 10.3626C24.9321 10.133 25.491 10.0183 26.1118 10.0183C26.6654 10.0183 27.2646 10.1121 27.9089 10.2978V14.9737H26.0684ZM26.1118 7.65205C25.3178 7.65205 24.5748 7.77644 23.8816 8.02485C23.1887 8.27327 22.575 8.62084 22.041 9.06792C21.507 9.515 21.092 10.0371 20.7964 10.6331C20.5004 11.229 20.3525 11.8813 20.3525 12.589C20.3525 13.4461 20.5905 14.2378 21.0671 14.9643C21.5434 15.6908 22.207 16.2684 23.0591 16.6968C23.9104 17.1255 24.9135 17.3396 26.0684 17.3396H27.9089V18.0849C27.9089 18.7184 27.7141 19.1871 27.324 19.4914C26.9347 19.7957 26.285 19.9478 25.3755 19.9478H21.2402V22.3696H25.3755C26.4004 22.3696 27.2881 22.202 28.0386 21.8667C28.7892 21.5314 29.3666 21.0439 29.7709 20.4043C30.1748 19.7643 30.3772 18.9913 30.3772 18.0849V8.63959C29.7997 8.39117 29.1429 8.16439 28.4066 7.9596C27.6706 7.7548 26.9055 7.65205 26.1118 7.65205Z" fill="black"/>
<path d="M57.3972 15.7139H54.3013H50.3174H46.3335H42.3503H38.3664H35.8333V2.65445H33.3647V18.1548H35.7899H35.8333H38.3664H42.3499H46.3335H50.3174H54.301H59.8654V9.02606H57.3972V15.7139Z" fill="black"/>
<path d="M60.0538 5.42448C60.0538 6.22021 59.4165 6.86523 58.6303 6.86523C57.8442 6.86523 57.2065 6.22021 57.2065 5.42448C57.2065 4.62839 57.8442 3.98337 58.6303 3.98337C59.4165 3.98337 60.0538 4.62839 60.0538 5.42448Z" fill="black"/>
<path d="M9.01764 25.4095C9.01764 26.2052 8.38037 26.8506 7.59421 26.8506C6.80768 26.8506 6.17041 26.2052 6.17041 25.4095C6.17041 24.6137 6.80768 23.9684 7.59421 23.9684C8.38037 23.9684 9.01764 24.6137 9.01764 25.4095Z" fill="black"/>
<path d="M12.2631 25.4095C12.2631 26.2052 11.6255 26.8506 10.8393 26.8506C10.0532 26.8506 9.41553 26.2052 9.41553 25.4095C9.41553 24.6137 10.0532 23.9684 10.8393 23.9684C11.6255 23.9684 12.2631 24.6137 12.2631 25.4095Z" fill="black"/>
<path d="M37.5784 25.3046L34.3604 21.0364H33.3647V26.8506H34.3775V22.6022L37.5784 26.8506H38.574V21.0364H37.5784V25.3046Z" fill="black"/>
<path d="M41.3767 24.6743L42.522 22.0246L43.6715 24.6743H41.3767ZM42.0329 21.0364L39.3809 26.8506H40.4363L41.0177 25.505H44.032L44.6158 26.8506H45.6973L43.0713 21.0364H42.0329Z" fill="black"/>
<path d="M51.8578 25.8212L50.3656 21.0364H49.37L47.8853 25.8212L46.4006 21.0364H45.3105L47.336 26.8506H48.3744L49.8505 22.2359L51.301 26.8506H52.3476L54.3816 21.0364H53.3347L51.8578 25.8212Z" fill="black"/>
<path d="M59.8654 21.0364H58.8356L57.1535 23.9103L55.4369 21.0364H54.416L56.6559 24.8964V26.8506H57.6601V24.8618L59.8654 21.0364Z" fill="black"/>
</svg>
