<svg width="16" height="16" viewBox="0 0 16 16" fill="none" xmlns="http://www.w3.org/2000/svg">
<g opacity="0.7">
<path d="M7.99984 1.33325C5.0665 1.33325 2.6665 3.73325 2.6665 6.66658C2.6665 10.2666 7.33317 14.3333 7.53317 14.5333C7.6665 14.5999 7.8665 14.6666 7.99984 14.6666C8.13317 14.6666 8.33317 14.5999 8.4665 14.5333C8.6665 14.3333 13.3332 10.2666 13.3332 6.66658C13.3332 3.73325 10.9332 1.33325 7.99984 1.33325ZM7.99984 13.1333C6.59984 11.7999 3.99984 8.93325 3.99984 6.66658C3.99984 4.46659 5.79984 2.66659 7.99984 2.66659C10.1998 2.66659 11.9998 4.46659 11.9998 6.66658C11.9998 8.86658 9.39984 11.7999 7.99984 13.1333ZM7.99984 3.99992C6.53317 3.99992 5.33317 5.19992 5.33317 6.66658C5.33317 8.13325 6.53317 9.33325 7.99984 9.33325C9.4665 9.33325 10.6665 8.13325 10.6665 6.66658C10.6665 5.19992 9.4665 3.99992 7.99984 3.99992ZM7.99984 7.99992C7.2665 7.99992 6.6665 7.39992 6.6665 6.66658C6.6665 5.93325 7.2665 5.33325 7.99984 5.33325C8.73317 5.33325 9.33317 5.93325 9.33317 6.66658C9.33317 7.39992 8.73317 7.99992 7.99984 7.99992Z" fill="#333333"/>
</g>
</svg>
