<svg width="208" height="184" viewBox="0 0 208 184" fill="none" xmlns="http://www.w3.org/2000/svg">
<path d="M114.033 31.5279C112.68 32.0584 111.287 32.0666 109.927 31.5555L110.258 30.6655L110.258 30.6656L109.927 31.5555C109.602 31.4334 109.299 31.0752 109.28 30.7176C108.986 25.5135 108.26 20.3273 107.195 15.2274C106.672 12.7253 106.064 10.239 105.355 7.78342C105.184 7.18651 105.006 6.59151 104.824 5.9979C104.654 5.44477 104.411 4.87303 104.385 4.28893C104.324 2.95956 105.357 2.61314 106.43 2.43174L106.645 2.39781C109.254 2.00171 111.897 2.00918 114.502 2.40745L115.022 2.49199C115.524 2.5795 115.844 2.97991 115.854 3.47578L115.851 3.57586C115.629 7.03554 115.473 10.5014 115.309 13.9655L115.14 17.4289C115.082 18.5619 115.017 19.6948 114.95 20.8274L114.749 24.2241C114.714 24.8109 114.676 25.3977 114.636 25.9841L114.508 27.743C114.461 28.3657 114.937 31.173 114.033 31.5279ZM112.281 29.592C112.276 29.3096 112.257 29.0111 112.236 28.7041C112.225 28.5377 112.212 28.3484 112.204 28.1851C112.197 28.0468 112.187 27.805 112.205 27.5671L112.205 27.5648C112.294 26.403 112.374 25.244 112.443 24.0859C112.577 21.8085 112.718 19.5632 112.833 17.3094C113.047 13.1239 113.219 8.8535 113.474 4.61088C111.317 4.34342 109.14 4.36806 106.99 4.69444L106.838 4.72015C106.85 4.75674 106.862 4.7961 106.876 4.83783C106.919 4.96829 106.978 5.13896 107.031 5.31121L107.032 5.31558C107.215 5.91445 107.397 6.5218 107.573 7.13535C108.3 9.65284 108.921 12.1964 109.455 14.7495L109.456 14.75C110.474 19.6245 111.191 24.5875 111.524 29.581C111.777 29.6149 112.029 29.6186 112.281 29.592Z" fill="#AEA8A5"/>
<path d="M116.898 40.0934C115.876 41.8646 113.494 41.9679 111.743 41.4575C109.928 40.9292 108.027 39.1531 108.496 37.076L108.548 36.8759C108.843 35.8721 109.638 34.8492 110.508 34.3771C113.477 32.7661 115.362 34.9341 115.86 35.4124C117.077 36.5849 117.804 38.5193 116.898 40.0934ZM114.155 39.3504C114.633 39.2574 114.811 39.0826 114.9 38.9284C114.988 38.774 115.038 38.5535 114.945 38.2038C114.845 37.8293 114.6 37.4155 114.265 37.092L114.005 36.8389C113.753 36.5957 113.517 36.3863 113.181 36.2376C112.991 36.1538 112.799 36.1085 112.588 36.1141C112.38 36.1195 112.058 36.1761 111.605 36.4216L111.605 36.4218C111.282 36.5967 110.846 37.1581 110.748 37.592C110.714 37.7427 110.722 37.9837 111.03 38.3528C111.361 38.7479 111.888 39.0815 112.385 39.2261L112.386 39.2263C112.989 39.4023 113.646 39.4495 114.155 39.3504Z" fill="#AEA8A5"/>
<path d="M94.9279 31.6849C95.773 31.5768 95.9084 30.5897 95.5061 30.0042C94.8279 29.0173 95.2775 27.831 96.0995 27.1308C96.6487 26.663 97.2431 26.2602 97.762 25.7556C98.2307 25.2995 98.6658 24.7989 99.0535 24.2717C100.551 22.2356 101.367 19.6504 101.416 17.1259C101.467 14.489 100.715 11.8966 99.1353 9.77922C97.629 7.75971 95.3895 6.28852 93.0007 5.55309L92.7405 5.47632C90.0451 4.70784 87.1447 4.82847 84.564 5.95796L84.5209 5.98038C83.7119 6.4752 84.8123 10.206 85.098 11.7854L85.1438 12.075C85.2267 12.7184 86.069 12.9668 86.526 12.5558C87.7339 11.4695 89.3449 12.3732 90.2885 13.3564C91.2887 14.3984 92.124 15.6379 92.6665 16.9816C93.1196 18.104 93.3117 19.3686 92.9825 20.5455L92.9099 20.7796C92.4412 22.145 91.2485 23.2135 89.8569 23.5502L89.7811 23.5713C89.4269 23.6866 89.058 24.0104 89.0271 24.4059L89.0257 24.4919C89.1109 26.2682 89.1915 28.0449 89.2808 29.8211L89.3736 31.5967C89.4188 32.4282 90.0707 32.8797 90.857 32.6088L90.4911 31.5359L90.4916 31.5356L90.857 32.6088C92.1758 32.1546 93.5463 31.8615 94.9279 31.6849ZM92.9115 29.6616C92.4743 29.7484 92.0374 29.8494 91.6015 29.9633C91.5258 28.473 91.4557 26.982 91.3848 25.4825C93.0869 24.7652 94.477 23.3319 95.093 21.5372L95.0925 21.5375C95.7579 19.5998 95.424 17.6378 94.8063 16.1077C94.1418 14.4619 93.1336 12.9769 91.9502 11.7439C91.3082 11.0749 90.3536 10.3303 89.2009 9.9648C88.5496 9.75822 87.7979 9.6702 87.0352 9.80667C86.9158 9.27749 86.7967 8.74285 86.7026 8.2338C86.665 8.03069 86.6355 7.84658 86.6113 7.68241C88.4426 7.15395 90.4347 7.19252 92.3247 7.7745C94.3011 8.38296 96.1082 9.59091 97.288 11.1727C98.5308 12.8389 99.1489 14.9136 99.107 17.0803L99.1065 17.0806C99.0664 19.1587 98.3884 21.2693 97.1962 22.8907C96.9612 23.2103 96.7051 23.5174 96.4333 23.8051L96.1565 24.0863C95.9876 24.2506 95.7872 24.416 95.5181 24.6279C95.276 24.8185 94.926 25.086 94.6061 25.3585C93.5963 26.2188 92.5994 27.8752 92.9115 29.6616Z" fill="#AEA8A5"/>
<path d="M90.2159 40.1162C91.3712 41.111 93.0919 40.8369 94.1111 39.779C95.2779 38.5676 95.4678 36.7184 94.5172 35.3125L94.4256 35.1836C93.4785 33.9227 91.6986 33.5012 90.334 34.3201L90.199 34.4057C89.4135 34.9363 88.9336 35.8149 88.7973 36.7479C88.7339 37.182 88.7715 37.6378 88.8825 38.0611C88.9485 38.3134 89.0225 38.5728 89.1831 38.781C89.2568 38.8768 89.907 39.8501 90.2159 40.1162ZM92.4522 38.1629C92.3158 38.3044 92.1285 38.3905 91.9654 38.4083C91.8607 38.4196 91.7978 38.4027 91.756 38.3792C91.7471 38.3685 91.7364 38.356 91.7244 38.3413C91.6542 38.2546 91.5678 38.1402 91.4739 38.0114C91.382 37.8854 91.2943 37.7609 91.2213 37.6564C91.1933 37.6165 91.1569 37.5651 91.1324 37.53L91.1159 37.4695L91.1161 37.4687C91.0731 37.3045 91.0705 37.1672 91.0824 37.0856L91.0821 37.0851C91.1396 36.6918 91.3261 36.4427 91.4869 36.334C91.6345 36.2345 91.825 36.1934 92.0453 36.2416C92.274 36.2918 92.4791 36.429 92.6076 36.619C92.9234 37.0863 92.8806 37.7182 92.4522 38.1629Z" fill="#AEA8A5"/>
<path d="M138.044 35.4594C134.836 36.5037 131.262 38.8438 128.322 41.764C126.228 43.8334 124.845 45.7286 124.499 46.947C124.268 47.7979 124.364 47.9526 125.095 47.9526C125.998 47.9526 126.343 47.6625 127.035 46.3475C127.823 44.839 131.3 41.2806 133.279 39.9655C136.257 37.9735 138.486 37.1226 140.888 37.0259C141.829 36.9872 142.713 36.8518 142.867 36.7165C143.27 36.3877 143.193 35.6335 142.713 35.3047C142.06 34.8405 139.697 34.9179 138.044 35.4594Z" fill="#AEA8A5"/>
<path d="M122.405 39.3467C121.963 39.7529 121.271 40.7585 120.772 41.7641C120.272 42.7118 119.676 43.7368 119.427 44.0269C118.408 45.2452 117.966 46.0768 117.966 46.773C117.966 47.682 118.159 47.9527 118.85 48.0108C119.388 48.0494 119.465 47.9527 120.848 45.1099C122.116 42.5184 122.443 42.0349 123.404 41.1646C124.576 40.1203 124.768 39.5595 124.153 38.9986C123.634 38.5151 123.231 38.5925 122.405 39.3467Z" fill="#AEA8A5"/>
<path d="M147.939 44.0845C142.655 44.8194 137.833 48.0104 134.797 52.7292L133.913 54.1023L132.722 53.5221C128.937 51.6075 124.441 53.4835 121.098 58.3763C121.06 58.415 120.887 58.3183 120.714 58.1636C119.849 57.39 117.332 56.4617 115.104 56.0749C113.567 55.8042 109.935 55.7849 108.629 56.0556C108.11 56.1523 107.284 56.3844 106.823 56.5391L105.977 56.8292L104.998 55.9009C102.692 53.6962 99.0415 52.7099 94.9107 53.174C90.434 53.6769 86.4568 55.2433 83.767 57.5834C83.1137 58.1443 82.7679 58.3376 82.7103 58.1636C81.0964 53.5221 80.6352 52.5939 79.0598 50.9887C77.1577 49.0354 74.8329 47.875 71.4321 47.1595C69.7221 46.8114 69.0305 46.7727 66.283 46.8501C62.8054 46.9661 60.5575 47.3916 57.3488 48.5326C53.6407 49.867 51.0469 51.4528 48.6837 53.8509C46.8969 55.6495 46.1475 57.0226 45.6288 59.4207L45.3022 60.9098L44.3223 60.0202C42.3625 58.241 40.1146 57.332 35.2537 56.3457C33.0249 55.9009 32.4485 55.8622 29.7779 55.9396C27.2802 56.0169 26.5309 56.1136 25.1091 56.5391C18.346 58.5697 14.0999 63.4239 13.5235 69.7479C13.3698 71.3337 13.6772 73.7511 14.2344 75.3563C14.4266 75.9558 14.561 76.478 14.5226 76.5167C14.4842 76.5553 13.8694 76.6907 13.1393 76.7874C11.0066 77.0968 9.62325 77.5223 7.72115 78.4313C3.45582 80.5006 1.09259 84.4651 0.593048 90.3636C0.112718 96.0494 1.51528 101.194 4.26277 103.746C7.29846 106.589 12.9279 108.678 17.4815 108.678H19.2491L19.1338 109.297C18.8072 111.018 18.7879 113.88 19.0954 115.292C19.9215 119.063 22.5922 122.602 26.6077 125.233C33.2363 129.584 41.2482 130.145 47.1082 126.664C48.9527 125.561 51.9307 122.583 53.0067 120.726L53.8328 119.334L55.1585 120.359C60.0195 124.072 66.3983 126.083 71.5858 125.484C73.3919 125.291 75.4861 124.749 76.466 124.246L76.9463 123.995L76.8887 126.644C76.8118 128.888 76.8695 129.584 77.2153 130.938C78.272 135.173 80.4815 137.687 86.9372 142.038C93.1046 146.196 98.1577 147.976 103.653 147.976C105.785 147.976 106.4 147.898 107.86 147.453C109.955 146.835 112.049 145.81 114.566 144.146C115.603 143.47 116.487 142.909 116.526 142.909C116.583 142.909 116.622 143.025 116.622 143.179C116.622 143.856 117.486 145.345 118.466 146.39C121.655 149.755 129.36 151.031 134.202 148.981C135.297 148.536 136.891 147.473 138.467 146.158L139.87 145.017L141.022 145.964C145.806 149.852 153.818 152.076 159.967 151.205C166.903 150.238 176.797 144.495 180.198 139.447C182.907 135.444 184.06 130.415 183.118 126.664C182.677 124.807 181.351 121.984 180.333 120.63C179.948 120.127 179.641 119.682 179.641 119.643C179.641 119.605 180.006 119.469 180.467 119.334C182.023 118.87 183.906 117.71 185.193 116.414C186.731 114.905 187.691 113.358 188.402 111.289C188.863 109.974 188.94 109.432 188.94 107.711C188.959 105.526 188.69 104.385 187.749 102.625C187.48 102.122 187.307 101.677 187.345 101.638C187.384 101.6 187.979 101.29 188.671 100.942C190.727 99.9173 192.61 98.4862 194.339 96.6683C197.759 93.0518 198.989 88.7972 198.201 83.3435C197.817 80.6553 196.933 76.9228 196.279 75.1822C194.473 70.3281 189.247 65.996 183.387 64.4682C180.371 63.6947 176.298 63.6173 174.031 64.3135C173.723 64.4102 173.685 64.2748 173.685 63.1918C173.685 60.581 172.801 58.2796 170.399 54.6438C168.017 51.008 165.884 49.1708 161.715 47.1788C157.046 44.9355 151.205 43.6204 147.939 44.0845ZM154.76 48.3972C158.526 49.3642 162.368 51.2594 164.559 53.2321C165.173 53.7736 166.019 54.8372 166.614 55.8429C167.152 56.7712 168.036 58.1636 168.536 58.9565C170.053 61.3159 170.419 63.1725 169.919 66.0347C169.496 68.4135 169.516 69.0323 170.053 69.4578C170.86 70.1347 171.898 69.9219 174.088 68.6069L176.086 67.3885L178.219 67.3111C181.562 67.2144 184.271 68.046 187.345 70.1153C190.304 72.1266 192.11 74.5247 193.263 78.0445C194.839 82.7633 195.127 87.192 194.051 90.2283C193.205 92.7037 191.054 95.3725 188.671 96.9777C186.903 98.1574 185.885 98.5829 184.06 98.9116C181.812 99.3178 181.37 99.6465 181.37 101C181.37 101.851 181.812 102.393 183.464 103.63C184.905 104.713 185.366 105.429 185.539 106.899C185.866 109.8 183.656 113.803 180.871 115.292C179.257 116.162 177.989 116.414 175.702 116.278C173.435 116.143 173.07 116.298 172.839 117.4C172.609 118.58 173.108 119.218 176.913 122.564C178.45 123.937 179.103 124.981 179.545 126.896C179.91 128.501 179.91 131.054 179.526 132.523C178.354 137.088 174.088 141.555 167.786 144.765C164.27 146.564 161.196 147.337 157.065 147.453C151.724 147.608 147.958 146.583 144.327 143.992C142.444 142.657 141.772 141.922 141.099 140.53C140.484 139.254 139.793 138.751 138.909 138.944C138.179 139.099 138.025 139.331 137.564 140.82C137.353 141.497 136.988 142.367 136.738 142.735C136.161 143.586 134.317 145.075 132.972 145.752C131.934 146.274 131.781 146.293 129.014 146.293C125.921 146.293 124.633 146.061 122.635 145.133C120.772 144.282 120.387 143.586 120.176 140.685C119.945 137.494 119.484 136.527 118.235 136.527C117.621 136.527 117.332 136.739 115.507 138.615C112.587 141.594 110.377 142.967 107.053 143.914C105.247 144.437 102.096 144.456 99.8484 143.972C94.3535 142.812 87.552 139.041 83.4788 134.902C81.4422 132.814 80.7697 131.557 80.4815 129.158C80.0012 125.175 80.8658 121.5 82.7295 119.682L83.3635 119.063L83.3443 123.202C83.3059 126.528 83.3635 127.592 83.6325 128.656C84.2089 131.015 84.8814 131.808 85.8036 131.208C86.3608 130.841 86.38 130.493 85.842 129.371C85.5346 128.694 85.4193 127.959 85.3233 126.18C85.1503 122.757 85.2656 116.414 85.5154 116.414C85.6115 116.414 85.9381 116.646 86.2071 116.917L86.7066 117.419L86.5721 121.036C86.4184 125.909 86.745 128.462 87.6865 129.661C88.0131 130.067 88.2052 130.164 88.5319 130.067C89.1275 129.874 89.2235 129.294 88.8585 127.785C88.5703 126.644 88.5319 125.851 88.6279 122.718C88.7624 118.309 88.8393 117.903 89.4157 118.077C89.627 118.135 89.896 118.27 89.9729 118.348C90.1842 118.522 90.434 120.456 90.6645 123.647C90.8182 125.581 90.9527 126.316 91.2986 127.012C91.875 128.172 92.2592 128.404 92.778 127.94C93.2583 127.495 93.2775 127.089 92.8741 125.793C92.7011 125.252 92.5474 123.801 92.4898 122.506C92.4322 121.229 92.3745 119.818 92.3361 119.353L92.2592 118.541H93.4697C94.8722 118.541 94.7762 118.348 95.1028 121.442C95.3718 124.033 95.9097 125.871 96.5438 126.47C96.928 126.838 97.1202 126.896 97.3699 126.741C97.8503 126.432 97.8695 125.445 97.4276 123.279C96.9088 120.688 96.5822 118.386 96.7359 118.174C96.8512 117.942 98.907 117.458 99.0607 117.613C99.1183 117.671 99.272 118.928 99.4258 120.398C99.5795 121.887 99.7908 123.395 99.9061 123.782C100.31 125.194 101.558 125.6 101.885 124.401C102.02 123.956 101.923 123.144 101.558 121.307C101.289 119.953 101.059 118.464 101.059 118C101.059 116.762 101.597 115.93 101.904 116.704C101.962 116.878 102.135 117.845 102.308 118.889C102.826 122.119 103.384 123.299 104.344 123.144C105.132 123.028 105.228 122.544 104.767 121.113C103.787 118.116 103.653 116.22 104.325 115.427C104.69 114.983 104.709 114.983 104.998 115.331C105.151 115.524 105.363 116.182 105.478 116.781C106.016 119.682 106.112 119.972 106.65 120.533C107.015 120.881 107.361 121.055 107.63 121.017C108.321 120.92 108.302 119.605 107.591 117.497C106.9 115.447 106.842 114.267 107.399 113.706C107.611 113.494 107.86 113.319 107.956 113.319C108.033 113.319 108.225 113.996 108.341 114.809C108.706 117.149 109.071 118.135 109.782 118.56C110.339 118.909 110.396 118.909 110.627 118.599C111.011 118.077 110.896 116.839 110.281 114.693C109.628 112.449 109.57 111.676 109.974 110.709C110.493 109.49 110.723 109.8 111.05 112.12C111.357 114.364 111.991 115.253 112.721 114.441C113.298 113.803 113.182 111.695 112.433 109.355C111.818 107.421 111.645 105.448 111.991 104.52C112.145 104.153 112.145 104.153 112.337 104.52C112.452 104.733 112.606 105.216 112.683 105.584C113.029 107.189 113.855 108.02 114.527 107.402C114.988 106.976 114.988 106.338 114.527 105.004L114.162 103.94L115.565 103.727C118.447 103.263 120.003 102.451 122.232 100.246C123.942 98.5635 126.19 95.5466 126.977 93.9608C127.938 91.9688 128.226 90.5184 128.207 87.7915C128.188 82.1251 125.959 76.9228 121.924 73.1516C118.773 70.212 115.334 68.8969 111.242 69.0903L109.224 69.1677V67.021C109.205 65.2225 109.109 64.4876 108.59 62.573C108.245 61.3159 107.976 60.2136 107.976 60.1362C107.976 59.8848 110.608 59.556 112.529 59.556C114.566 59.556 116.526 59.9041 117.813 60.4843C119.062 61.0258 119.792 61.8961 120.272 63.3272C120.868 65.1064 121.194 65.4545 122.289 65.4545C123.558 65.4545 123.73 65.1451 123.73 62.9211C123.73 61.9348 123.807 60.9098 123.903 60.6584C124.192 59.9041 125.21 58.8405 126.824 57.6028C128.246 56.5197 128.361 56.4617 129.437 56.4617C130.128 56.4617 130.859 56.6164 131.377 56.8485C132.223 57.2353 132.396 57.5061 133.222 59.7881C133.606 60.8324 134.298 61.49 135.047 61.49C136.181 61.49 136.603 60.7164 136.891 58.0089C137.045 56.7325 137.449 55.34 138.044 54.141C139.082 52.0717 143.635 48.5906 146.152 47.9524C146.556 47.8557 148.227 47.7977 149.86 47.8364C152.262 47.8944 153.204 48.0104 154.76 48.3972ZM71.509 51.0274C75.7167 52.1104 78.4065 54.9146 79.4248 59.2659C79.5977 60.0008 79.8283 61.6834 79.9244 62.9791C80.1357 66.0154 80.4047 66.5182 81.8457 66.5182C82.7871 66.5182 83.5556 65.5706 84.5163 63.2692C85.2656 61.5093 85.477 61.1612 86.5913 60.1362C87.9747 58.8792 90.5877 57.4674 92.509 56.9452C94.1613 56.5004 96.8896 56.365 98.4843 56.6358C101.27 57.1193 103.076 58.473 104.229 60.9678C105.363 63.3659 105.536 64.4296 105.555 68.6842C105.574 72.4361 105.574 72.4941 106.035 72.9775C106.977 74.0025 108.11 74.0025 110.07 72.9775C111.05 72.4941 112.356 72.4167 114.028 72.8035C118.178 73.7318 121.367 76.5747 123.135 80.9647C124.172 83.5368 124.403 84.7552 124.403 87.8882C124.403 90.5764 124.364 90.8858 123.903 91.9688C122.866 94.4443 120.234 97.79 118.389 98.9697C117.198 99.7432 115.738 100.149 113.74 100.304C112.395 100.401 111.799 100.343 110.377 99.956C107.726 99.2791 107.188 99.3951 106.823 100.71C106.573 101.638 106.746 102.219 107.534 103.263C108.168 104.095 108.206 104.191 108.129 105.487C108.052 107.189 107.322 108.736 105.939 110.128C104.786 111.289 101.962 112.836 99.6179 113.571C95.2757 114.925 90.3571 115.021 87.9363 113.784C87.5904 113.61 86.7066 112.875 85.9573 112.14C84.574 110.805 84.0552 110.535 83.0945 110.651C82.2876 110.747 81.9033 111.482 81.5575 113.494C81.3653 114.615 81.0579 115.679 80.7505 116.259C78.9445 119.605 74.0259 122.022 69.0689 122.003C66.283 122.003 62.3059 120.726 59.1165 118.793C56.8109 117.4 56.1 116.627 55.3699 114.635C54.4477 112.178 53.3909 111.424 52.1805 112.372C51.4888 112.913 51.2006 113.687 50.7011 116.259C50.4705 117.458 50.1247 118.754 49.9326 119.121C49.1448 120.746 45.2253 123.859 42.8621 124.73C39.7688 125.909 35.196 125.561 31.3726 123.84C29.6626 123.086 27.2418 121.384 25.8008 119.934C22.1503 116.259 21.4586 110.844 24.1676 107.266C25.1859 105.912 25.3973 105.487 25.2436 104.926C24.9362 103.708 23.6489 103.592 20.5748 104.52C18.9224 105.004 18.5958 105.042 16.6361 104.946C13.658 104.81 12.2555 104.307 8.29754 101.967C6.14566 100.691 5.3195 99.8786 4.81995 98.5055C3.34054 94.5603 4.3012 86.3411 6.4915 83.885C7.35609 82.918 9.23899 81.5642 10.5647 80.9454C12.1402 80.2105 13.2545 80.1525 15.7715 80.6359C18.2692 81.1194 18.9609 81.0421 19.7486 80.2492C20.8245 79.1661 20.6708 78.1992 19.1338 76.4006C17.443 74.4473 17.0011 72.9002 17.1356 69.4771C17.1933 67.6979 17.2893 67.2531 17.712 66.4022C18.8264 64.2748 21.4778 62.0121 24.648 60.523C26.8383 59.498 28.1064 59.2853 31.2765 59.4207C35.4266 59.614 38.616 60.3876 40.4989 61.6447C42.132 62.7277 44.5529 65.1258 45.0716 66.1894C45.7825 67.5819 46.3205 68.0654 47.2235 68.0654C48.1842 68.0654 48.6645 67.5625 48.6453 66.5762C48.6453 66.1701 48.6261 65.0097 48.5876 64.0041C48.4531 58.6277 51.2967 54.8179 57.3488 52.3811C61.8063 50.5826 67.6279 50.0411 71.509 51.0274Z" fill="#AEA8A5"/>
<path d="M178.988 74.5634C178.93 74.7375 178.872 75.0663 178.872 75.3177C178.872 75.7238 178.988 75.8012 179.795 75.8979C183.503 76.42 185.616 77.9478 186.769 81.0034C187.096 81.835 187.211 82.6666 187.288 84.6586L187.384 87.2307L186.673 88.2557C186.289 88.8166 185.885 89.5708 185.789 89.8996C185.635 90.4604 185.655 90.5378 186.135 90.7118C187.249 91.1373 188.517 89.8609 189.055 87.7916C189.344 86.7086 189.344 83.4209 189.075 81.8544C188.613 79.3403 187.691 77.445 186.481 76.5167C184.367 74.8729 179.372 73.5771 178.988 74.5634Z" fill="#AEA8A5"/>
<path d="M182.869 92.4527C182.369 92.7428 182.427 93.7098 182.926 93.9999C183.58 94.348 184.252 93.9418 184.252 93.2263C184.252 92.414 183.56 92.0272 182.869 92.4527Z" fill="#AEA8A5"/>
<path d="M178.334 100.691C178.046 100.807 177.527 101.774 177.527 102.181C177.527 102.355 177.796 102.548 178.142 102.645C179.045 102.877 179.468 103.728 179.583 105.546C179.679 106.88 179.641 107.112 179.218 107.712C178.968 108.079 178.104 108.833 177.278 109.375C174.876 110.961 174.415 111.541 175.203 111.966C175.798 112.276 176.394 112.198 177.623 111.599C179.026 110.941 180.659 109.394 181.178 108.253C181.716 107.073 181.697 104.463 181.159 103.264C180.64 102.103 179.929 101.194 179.257 100.846C178.949 100.691 178.68 100.556 178.642 100.575C178.603 100.575 178.469 100.633 178.334 100.691Z" fill="#AEA8A5"/>
<path d="M170.803 124.595C170.803 125.001 171.033 125.581 171.379 126.123C172.494 127.805 172.551 131.228 171.494 133.53C170.86 134.903 169.631 136.469 168.344 137.552C166.288 139.293 162.733 140.685 159.851 140.898C157.661 141.053 157.181 141.149 156.969 141.555C156.489 142.484 157.277 142.909 159.448 142.909C164.04 142.909 170.015 139.757 172.378 136.044C173.589 134.187 173.973 132.64 173.973 129.565C173.973 127.128 173.935 126.877 173.454 125.852C172.916 124.691 172.052 123.957 171.245 123.957C170.88 123.957 170.803 124.053 170.803 124.595Z" fill="#AEA8A5"/>
<path d="M142.483 135.657C142.079 136.063 142.367 136.798 143.424 138.016C145.634 140.55 149.591 142.039 149.976 140.472C150.149 139.796 149.803 139.486 148.247 139.003C147.075 138.616 146.709 138.384 145.634 137.301C143.655 135.328 143.097 135.038 142.483 135.657Z" fill="#AEA8A5"/>
<path d="M123.538 138.171C123.538 139.718 124.614 141.207 126.42 142.135C127.746 142.812 128.515 142.986 130.032 142.948C132.146 142.89 133.644 141.903 133.491 140.646C133.414 139.873 132.645 139.834 131.473 140.53C130.743 140.956 130.359 141.052 129.398 141.033C127.842 141.014 126.939 140.607 126.286 139.621C125.21 137.997 124.672 137.494 124.096 137.494C123.577 137.494 123.538 137.552 123.538 138.171Z" fill="#AEA8A5"/>
<path d="M152.262 140.665C151.801 141.362 152.166 141.942 153.011 141.942C153.549 141.942 153.684 141.845 153.78 141.458C154.068 140.317 152.877 139.718 152.262 140.665Z" fill="#AEA8A5"/>
<path d="M14.2345 84.5039C13.7734 84.7166 12.8511 85.3355 12.1787 85.877C10.4879 87.2308 9.7386 88.7586 9.71939 90.8472C9.71939 92.8779 10.1613 94.0962 11.3909 95.4693C12.6782 96.8811 14.5035 97.7127 14.8877 97.0745C15.1183 96.7071 14.2153 95.1986 13.2738 94.4057C12.0442 93.3613 11.7176 92.6265 11.7176 90.8279C11.7176 88.952 12.0826 88.3911 14.1192 87.1534C15.7523 86.1864 16.713 85.4322 16.713 85.1421C16.713 84.7553 16.1942 84.3105 15.6563 84.2138C15.2912 84.1558 14.7725 84.2525 14.2345 84.5039Z" fill="#AEA8A5"/>
<path d="M18.2884 86.0901C18.1731 86.2061 18.0578 86.5736 18.0578 86.8637C18.0578 87.2698 18.1731 87.4245 18.5189 87.5212C19.422 87.7339 19.691 87.5599 19.691 86.7283C19.691 86.0127 19.6525 85.9547 19.1146 85.8967C18.7879 85.858 18.4229 85.9547 18.2884 86.0901Z" fill="#AEA8A5"/>
<path d="M29.3937 112.121C29.3937 112.43 29.5282 113.146 29.7011 113.707C29.9509 114.558 30.2775 115.022 31.3918 116.143C35.0424 119.799 41.229 120.804 44.8603 118.329C45.7249 117.749 46.4358 116.627 46.2437 116.143C46.0323 115.621 45.2446 115.795 43.477 116.743C42.036 117.497 41.5748 117.652 40.4413 117.71C37.9243 117.884 34.831 116.898 33.3708 115.486C32.9481 115.099 32.2757 114.248 31.853 113.61C30.7578 111.985 30.3543 111.579 29.8356 111.579C29.4705 111.579 29.3937 111.676 29.3937 112.121Z" fill="#AEA8A5"/>
<path d="M62.2867 111.792C61.7872 111.985 61.7487 112.353 62.133 113.107C62.8823 114.557 65.6106 116.163 68.9345 117.11C72.1047 118.019 75.1596 117.516 76.101 115.95C77.0425 114.403 76.2355 113.958 74.295 114.964C73.219 115.524 72.7771 115.64 71.7972 115.64C69.5109 115.64 67.4743 114.848 64.3617 112.74C63.036 111.85 62.6518 111.657 62.2867 111.792Z" fill="#AEA8A5"/>
<path d="M12.0057 49.9058C8.701 51.6657 3.45579 56.984 2.05323 60.001C0.977292 62.2444 0.881226 63.0953 0.881226 68.7811C0.881226 72.823 0.938865 74.1381 1.131 74.5249C1.68818 75.5692 2.47592 75.2404 2.8794 73.7513C3.12917 72.881 3.09074 72.2235 2.68727 68.9551C2.18772 65.0872 3.28288 61.084 5.68453 58.0671C7.18316 56.1911 8.47044 54.9341 10.0843 53.7931C12.5629 52.0525 13.9846 50.8728 14.1191 50.4473C14.4265 49.4997 13.293 49.2096 12.0057 49.9058Z" fill="#AEA8A5"/>
<path d="M13.927 55.7272C11.2371 57.2163 8.45122 61.0842 7.47134 64.662C6.47226 68.3945 7.26 71.9916 8.75863 70.4831C9.21975 70.019 9.23896 69.9416 9.12368 68.2011C9.02761 66.7506 9.06604 66.1511 9.39266 64.8941C10.1804 61.9158 11.679 59.4597 13.3698 58.4734C14.9453 57.5451 15.6754 56.1527 14.8108 55.6885C14.3689 55.4564 14.4073 55.4564 13.927 55.7272Z" fill="#AEA8A5"/>
<path d="M201.659 93.4389C201.621 93.5743 201.486 94.1158 201.352 94.6573C200.775 97.1327 198.527 99.8789 195.376 101.948C194.128 102.78 193.666 103.186 193.494 103.669C193.205 104.52 193.205 104.54 193.859 104.81C194.531 105.081 194.838 104.926 196.779 103.302C197.432 102.722 198.623 101.735 199.392 101.097C201.986 98.97 203.158 96.862 203.043 94.5219L202.985 93.3035L202.351 93.2455C201.967 93.2068 201.698 93.2842 201.659 93.4389Z" fill="#AEA8A5"/>
<path d="M205.867 97.6936C204.868 100.536 202.985 103.96 201.582 105.468C201.179 105.874 200.026 106.764 199.008 107.441C197.106 108.678 196.664 109.142 196.376 110.187C196.01 111.405 197.144 111.502 198.431 110.342C198.816 109.993 199.834 109.201 200.679 108.582C202.754 107.073 203.715 106.126 204.81 104.52C206.501 102.006 207.5 99.4535 207.5 97.6356C207.5 96.6879 207.5 96.6879 206.866 96.6879C206.27 96.6879 206.213 96.7653 205.867 97.6936Z" fill="#AEA8A5"/>
<path d="M49.8173 132.35C45.6865 133.143 43.1888 134.748 42.2858 137.185C41.0177 140.627 40.9985 145.81 42.2665 149.175C43.1119 151.418 45.4751 153.101 49.1641 154.068C51.7002 154.745 55.0817 154.783 56.7725 154.165C59.9235 153.004 63.0168 149.833 64.0735 146.68C64.4962 145.365 64.6115 139.312 64.2272 138.171C63.6508 136.508 61.7103 134.651 59.4431 133.607C56.7149 132.35 52.6225 131.808 49.8173 132.35ZM57.1376 134.69C58.7515 135.135 59.9043 135.773 60.9418 136.779C62.2483 138.055 62.5173 138.674 62.3443 139.989C62.2483 140.588 62.2098 141.555 62.2675 142.136C62.4596 145.211 62.3636 146.042 61.6719 147.357C60.7112 149.156 58.8283 150.993 56.9839 151.902C55.5429 152.637 55.4468 152.656 53.4486 152.637C48.9335 152.617 44.9372 150.722 43.8036 148.092C43.4385 147.241 43.3425 146.603 43.2656 144.456C43.1696 141.459 43.3809 140.047 44.1687 138.364C45.0717 136.411 46.455 135.309 48.8951 134.555C49.8558 134.264 50.5474 134.226 53.0259 134.284C54.9857 134.342 56.3882 134.477 57.1376 134.69Z" fill="#AEA8A5"/>
<path d="M55.6389 136.74C55.2354 137.049 55.1393 137.281 55.1777 137.765C55.2354 138.345 55.2546 138.364 56.196 138.345C57.1375 138.325 57.1567 138.345 57.9444 139.408C59.1933 141.11 59.6352 142.097 59.7121 143.412C59.7889 144.688 59.7121 144.939 58.6745 146.487C57.8868 147.705 57.7331 148.595 58.3479 148.672C58.8282 148.749 60.0771 148.15 60.5574 147.608C61.691 146.351 61.8639 143.663 60.9801 140.994C60.3653 139.099 59.2317 137.3 58.3287 136.74C57.4833 136.198 56.3113 136.217 55.6389 136.74Z" fill="#AEA8A5"/>
<path d="M140.984 155.016C138.275 155.673 135.316 158.013 134.221 160.392C132.78 163.467 133.279 166.755 135.585 169.095C138.198 171.763 142.924 172.208 146.44 170.12C149.226 168.456 150.956 164.782 150.456 161.63C150.129 159.599 149.553 158.303 148.477 157.104C146.556 155.016 143.962 154.281 140.984 155.016ZM145.73 157.22C146.978 157.82 148.054 159.116 148.439 160.431C149.688 164.743 146.421 169.191 141.752 169.539C139.831 169.694 138.659 169.288 137.295 168.031C135.989 166.832 135.412 165.556 135.431 163.892C135.451 160.721 138.16 157.53 141.445 156.833C142.694 156.563 144.769 156.756 145.73 157.22Z" fill="#AEA8A5"/>
<path d="M141.522 159.27C141.042 159.754 141.157 159.966 142.367 160.895C143.712 161.881 144.289 162.906 144.289 164.24C144.289 165.42 144 166 143.117 166.6C142.387 167.064 142.002 167.818 142.271 168.224C142.483 168.592 143.808 168.456 144.5 167.992C145.499 167.335 146.018 166.116 146.018 164.472C146.018 162.132 145.268 160.314 143.924 159.406C143.155 158.883 141.964 158.825 141.522 159.27Z" fill="#AEA8A5"/>
<path d="M73.9106 156.292C71.8163 156.737 70.2793 158.593 69.9334 161.107C69.626 163.273 70.2601 165.072 71.7203 166.194C73.5647 167.605 75.9279 168.108 77.7724 167.489C79.0405 167.044 79.7706 166.348 80.5007 164.917C81.8456 162.21 81.6343 160.276 79.8474 158.477C78.0606 156.679 75.8703 155.866 73.9106 156.292ZM76.7157 158.516C77.6379 158.999 77.6763 159.057 77.196 159.115C76.927 159.154 76.6004 159.289 76.5043 159.405C76.2546 159.715 76.6004 163.061 76.9078 163.254C78.0222 163.97 79.0021 162.229 78.3872 160.585C78.1183 159.889 78.3296 159.734 78.7907 160.295C79.3671 160.991 79.2903 162.867 78.6562 164.163C78.2527 164.975 77.9645 165.265 77.3497 165.555C74.6407 166.793 71.9892 164.859 71.97 161.668C71.9508 158.593 74.1027 157.143 76.7157 158.516Z" fill="#AEA8A5"/>
<path d="M87.8209 168.94C86.8411 169.772 86.5144 171.88 87.2061 173.001C88.4358 175.051 91.6251 175.612 92.605 173.988C93.2006 173.021 93.1046 171.667 92.4129 170.41C91.9902 169.675 91.7212 169.404 91.3946 169.404C91.164 169.404 90.5492 169.172 90.0112 168.921C88.8008 168.321 88.551 168.321 87.8209 168.94ZM90.4531 170.835C90.7413 171.009 91.1064 172.382 90.9527 172.769C90.799 173.156 90.4339 173.156 89.7038 172.789C89.0698 172.44 88.6855 171.667 88.8392 171.029C88.9353 170.7 89.0698 170.623 89.5885 170.661C89.9536 170.681 90.3379 170.758 90.4531 170.835Z" fill="#AEA8A5"/>
<path d="M122.347 169.868C120.214 170.448 118.927 172.092 118.927 174.219C118.966 177.043 120.311 178.319 123.289 178.319C125.133 178.319 126.286 177.797 126.862 176.675C127.227 175.999 127.227 175.786 127.054 173.871C126.805 171.28 126.382 170.371 125.268 169.907C124.364 169.539 123.596 169.539 122.347 169.868ZM124.902 172.537C125.229 173.639 125.229 175.709 124.941 175.999C124.557 176.385 122.578 176.443 121.751 176.115C121.06 175.805 121.041 175.786 121.041 174.742C121.041 173.446 121.252 172.827 121.924 172.208C122.347 171.802 122.635 171.725 123.558 171.725H124.672L124.902 172.537Z" fill="#AEA8A5"/>
<path d="M101.808 175.419C100.713 175.573 100.367 175.767 99.6179 176.54C99.1376 177.062 99.0415 177.333 98.9839 178.377C98.9262 179.402 98.9839 179.809 99.3682 180.66C100.617 183.386 102.827 184.643 104.709 183.676C105.459 183.29 105.632 183.077 106.035 182.071C106.573 180.679 106.65 178.416 106.189 177.294C105.632 175.96 103.71 175.128 101.808 175.419ZM103.71 177.527L104.325 177.913V179.615C104.325 181.743 104.133 182.091 103.076 181.897C101.213 181.53 100.348 178.668 101.77 177.527C102.385 177.043 102.903 177.043 103.71 177.527Z" fill="#AEA8A5"/>
</svg>
