<svg width="16" height="16" viewBox="0 0 16 16" fill="none" xmlns="http://www.w3.org/2000/svg">
<path opacity="0.4" fill-rule="evenodd" clip-rule="evenodd" d="M1.57978 8.88647C2.58565 8.21267 3.78574 8.01453 4.90595 8.29077C5.16995 8.35587 5.30248 8.3884 5.31416 8.4812C5.32538 8.57378 5.19636 8.64315 4.93916 8.78101C4.74369 8.88577 4.55161 8.99572 4.41083 9.08276C4.07404 9.27967 3.44019 9.6504 2.98212 10.116C2.68646 10.4165 2.29771 10.916 2.22529 11.6033C2.20296 11.8154 2.21318 12.0187 2.2497 12.2117C2.28626 12.4047 2.30429 12.5018 2.25556 12.5525C2.20668 12.6032 2.12453 12.591 1.96162 12.5662C1.26478 12.46 0.793426 12.08 0.406929 11.6658C0.11794 11.356 -0.0314629 10.999 0.0055615 10.6179C0.0404311 10.2603 0.232296 9.97206 0.42353 9.76147C0.725463 9.42908 1.17073 9.14698 1.4372 8.97827C1.49387 8.94239 1.54239 8.91151 1.57978 8.88647ZM11.0944 8.29077C12.2146 8.01454 13.4148 8.21274 14.4206 8.88647C14.4581 8.91159 14.5072 8.94223 14.5642 8.97827C14.8307 9.14701 15.2759 9.42899 15.5778 9.76147C15.769 9.97204 15.9599 10.2603 15.9948 10.6179C16.0318 10.999 15.8825 11.356 15.5935 11.6658C15.2069 12.0801 14.7358 12.4601 14.0388 12.5662C13.876 12.5909 13.7947 12.603 13.7458 12.5525C13.6969 12.5018 13.7151 12.4049 13.7517 12.2117C13.7882 12.0187 13.7984 11.8154 13.7761 11.6033C13.7037 10.9161 13.3149 10.4165 13.0192 10.116C12.561 9.65021 11.9263 9.27964 11.5895 9.08276C11.4488 8.99575 11.2576 8.88573 11.0622 8.78101C10.8048 8.64304 10.6759 8.57384 10.6872 8.4812C10.6989 8.38845 10.8307 8.3558 11.0944 8.29077ZM3.91572 3.40405C4.02822 3.40407 4.13879 3.41225 4.24677 3.42847C4.37593 3.44789 4.44113 3.45782 4.47431 3.51147C4.50745 3.56512 4.48441 3.6366 4.43818 3.77905C4.31993 4.1434 4.25556 4.53251 4.25556 4.93628C4.25564 5.78034 4.53529 6.55909 5.00654 7.1853C5.09644 7.30477 5.14149 7.36505 5.12763 7.42651C5.11363 7.4877 5.05539 7.51754 4.94013 7.57788C4.63385 7.73823 4.28539 7.82977 3.91572 7.82983C2.69374 7.82983 1.70293 6.8389 1.70283 5.61694C1.70283 4.3949 2.69367 3.40405 3.91572 3.40405ZM12.0856 3.40405C13.3077 3.40408 14.2985 4.39491 14.2985 5.61694C14.2984 6.83889 13.3076 7.82981 12.0856 7.82983C11.7159 7.82983 11.3676 7.73823 11.0612 7.57788C10.9459 7.51751 10.8878 7.48767 10.8737 7.42651C10.8599 7.36505 10.9049 7.30478 10.9948 7.1853C11.466 6.55912 11.7447 5.78025 11.7448 4.93628C11.7448 4.53256 11.6814 4.14337 11.5632 3.77905C11.5169 3.63655 11.4939 3.56513 11.527 3.51147C11.5602 3.45797 11.6246 3.44786 11.7536 3.42847C11.8619 3.41219 11.9729 3.40405 12.0856 3.40405Z" fill="#113478"/>
<path fill-rule="evenodd" clip-rule="evenodd" d="M5.066 9.68408C6.86187 8.57366 9.13928 8.57363 10.9351 9.68408C10.988 9.71679 11.0554 9.75526 11.1324 9.80029C11.4811 10.0044 12.0349 10.3284 12.4127 10.7124C12.65 10.9536 12.8861 11.2829 12.9293 11.6929C12.9754 12.1314 12.7892 12.5369 12.4342 12.8882C11.8476 13.4685 11.1213 13.9575 10.1685 13.9575H5.8326C4.8798 13.9575 4.15262 13.4686 3.566 12.8882C3.21117 12.537 3.0248 12.1312 3.07088 11.6929C3.11403 11.2829 3.35117 10.9536 3.58846 10.7124C3.96625 10.3285 4.52004 10.0043 4.86873 9.80029C4.94566 9.75528 5.01312 9.71678 5.066 9.68408ZM8.00057 2.04248C9.59852 2.0426 10.8941 3.33805 10.8941 4.93604C10.8941 6.53401 9.59852 7.82947 8.00057 7.82959C6.40251 7.82959 5.10702 6.53409 5.10701 4.93604C5.10701 3.33798 6.40251 2.04248 8.00057 2.04248Z" fill="#113478"/>
</svg>
