<svg width="24" height="24" viewBox="0 0 24 24" fill="none" xmlns="http://www.w3.org/2000/svg">
<path d="M7.545 4.85763C7.92279 4.93571 8.22366 5.18954 8.41059 5.52489L9.00606 6.59319C9.2254 6.98666 9.40998 7.31778 9.53053 7.60563C9.65839 7.91097 9.73434 8.21208 9.69962 8.54499C9.66491 8.87789 9.52847 9.15685 9.34035 9.42924C9.16302 9.68603 8.91409 9.97195 8.61828 10.3117L7.74295 11.3172C7.58609 11.4973 7.50766 11.5874 7.50049 11.7C7.49332 11.8126 7.5576 11.9088 7.68616 12.1011C8.78189 13.7405 10.2587 15.2178 11.8994 16.3145C12.0917 16.443 12.1879 16.5073 12.3005 16.5001C12.4131 16.493 12.5032 16.4145 12.6834 16.2577L13.6889 15.3823C14.0286 15.0865 14.3146 14.8376 14.5713 14.6602C14.8437 14.4721 15.1227 14.3357 15.4556 14.301C15.7885 14.2662 16.0896 14.3422 16.395 14.4701C16.6828 14.5906 17.0139 14.7752 17.4073 14.9945L18.4757 15.59C18.811 15.7769 19.0649 16.0778 19.143 16.4556C19.2219 16.8373 19.1055 17.221 18.8484 17.5364C17.9158 18.6806 16.4216 19.4092 14.8542 19.093C13.8907 18.8986 12.94 18.5748 11.7902 17.9154C9.47996 16.5905 7.40858 14.5179 6.0852 12.2104C5.42579 11.0606 5.10198 10.1099 4.90761 9.14641C4.59142 7.57893 5.31997 6.08474 6.46421 5.15214C6.77957 4.89511 7.16327 4.77873 7.545 4.85763Z" fill="#113478"/>
</svg>
