<svg width="32" height="32" viewBox="0 0 32 32" fill="none" xmlns="http://www.w3.org/2000/svg">
<path fill-rule="evenodd" clip-rule="evenodd" d="M16.0104 4.3335C12.8771 4.3335 10.3437 6.86683 10.3437 10.0002C10.3437 13.1335 12.8771 15.6668 16.0104 15.6668C19.1437 15.6668 21.6771 13.1335 21.6771 10.0002C21.6771 6.86683 19.1437 4.3335 16.0104 4.3335ZM16.0104 17.6668C13.5037 17.6668 11.1571 18.1869 9.18374 19.0802C7.2104 19.9869 6.34375 22.0401 6.34375 23.9601C6.34375 24.5335 6.34374 25.1601 6.39707 25.6001C6.46374 26.0668 6.61041 26.5735 7.02374 26.9868C7.43708 27.4002 7.93042 27.5468 8.41042 27.6134C8.83709 27.6668 9.37041 27.6668 9.94375 27.6668H22.0637C22.6371 27.6668 23.1704 27.6668 23.5971 27.6134C24.0771 27.5468 24.5704 27.4002 24.9837 26.9868C25.3971 26.5735 25.5437 26.0668 25.6104 25.6001C25.6637 25.1601 25.6637 24.5335 25.6637 23.9601C25.6637 22.0401 24.7971 19.9869 22.8237 19.0802C20.8504 18.1869 18.5037 17.6668 15.9971 17.6668H16.0104Z" fill="#113478"/>
</svg>
