<svg width="32" height="32" viewBox="0 0 32 32" fill="none" xmlns="http://www.w3.org/2000/svg">
<path d="M9.17285 19.083C13.2795 17.2297 18.7338 17.243 22.8271 19.083C24.5869 19.8831 25.667 21.7631 25.667 23.9629V26.6699C25.6668 27.2163 25.2134 27.6697 24.667 27.6699C24.1205 27.6699 23.6672 27.2164 23.667 26.6699V23.9629C23.667 22.8563 23.2266 21.4698 22 20.8965C18.4267 19.2832 13.5867 19.2832 10 20.8965C8.77341 21.4565 8.33301 22.8429 8.33301 23.9629V26.6699C8.33278 27.2164 7.87954 27.6699 7.33301 27.6699C6.78662 27.6697 6.33324 27.2163 6.33301 26.6699V23.9629C6.33301 21.7497 7.41311 19.8831 9.17285 19.083ZM16 4.33301C19.12 4.33301 21.667 6.88 21.667 10C21.667 13.12 19.12 15.667 16 15.667C12.88 15.667 10.333 13.12 10.333 10C10.333 6.88 12.88 4.33301 16 4.33301ZM16 6.33301C13.9733 6.33301 12.333 7.97333 12.333 10C12.333 12.0267 13.9733 13.667 16 13.667C18.0267 13.667 19.667 12.0267 19.667 10C19.667 7.97333 18.0267 6.33301 16 6.33301Z" fill="#113478"/>
</svg>
