<svg width="80" height="80" viewBox="0 0 80 80" fill="none" xmlns="http://www.w3.org/2000/svg">
<path d="M20 63.333C21.841 63.333 23.333 64.826 23.333 66.667C23.3328 68.5078 21.8408 70 20 70H10C8.15916 70 6.66717 68.5078 6.66699 66.667C6.66699 64.826 8.15905 63.333 10 63.333H20ZM45 63.333C46.841 63.333 48.333 64.826 48.333 66.667C48.3328 68.5078 46.8408 70 45 70H35C33.1592 70 31.6672 68.5078 31.667 66.667C31.667 64.826 33.159 63.333 35 63.333H45ZM70 63.333C71.841 63.333 73.333 64.826 73.333 66.667C73.3328 68.5078 71.8408 70 70 70H60C58.1592 70 56.6672 68.5078 56.667 66.667C56.667 64.826 58.159 63.333 60 63.333H70ZM20 50C21.8408 50 23.3328 51.4922 23.333 53.333C23.333 55.174 21.841 56.667 20 56.667H10C8.15905 56.667 6.66699 55.174 6.66699 53.333C6.66717 51.4922 8.15916 50 10 50H20ZM45 50C46.8408 50 48.3328 51.4922 48.333 53.333C48.333 55.174 46.841 56.667 45 56.667H35C33.159 56.667 31.667 55.174 31.667 53.333C31.6672 51.4922 33.1592 50 35 50H45ZM70 50C71.8408 50 73.3328 51.4922 73.333 53.333C73.333 55.174 71.841 56.667 70 56.667H60C58.159 56.667 56.667 55.174 56.667 53.333C56.6672 51.4922 58.1592 50 60 50H70ZM20 36.667C21.841 36.667 23.333 38.159 23.333 40C23.333 41.8409 21.8409 43.333 20 43.333H10C8.15905 43.333 6.66699 41.8409 6.66699 40C6.66699 38.159 8.15905 36.667 10 36.667H20ZM45 36.667C46.841 36.667 48.333 38.1591 48.333 40C48.333 41.8409 46.841 43.333 45 43.333H35C33.1591 43.333 31.667 41.8409 31.667 40C31.667 38.159 33.159 36.667 35 36.667H45ZM70 36.667C71.841 36.667 73.333 38.159 73.333 40C73.333 41.8409 71.841 43.333 70 43.333H60C58.159 43.333 56.667 41.8409 56.667 40C56.667 38.1591 58.159 36.667 60 36.667H70ZM20 23.333C21.841 23.333 23.333 24.826 23.333 26.667C23.3328 28.5078 21.8408 30 20 30H10C8.15916 30 6.66717 28.5078 6.66699 26.667C6.66699 24.826 8.15905 23.333 10 23.333H20ZM70 23.333C71.841 23.333 73.333 24.826 73.333 26.667C73.3328 28.5078 71.8408 30 70 30H60C58.1592 30 56.6672 28.5078 56.667 26.667C56.667 24.826 58.159 23.333 60 23.333H70ZM20 10C21.8408 10 23.3328 11.4922 23.333 13.333C23.333 15.174 21.841 16.667 20 16.667H10C8.15905 16.667 6.66699 15.174 6.66699 13.333C6.66717 11.4922 8.15916 10 10 10H20Z" fill="#16A34A"/>
</svg>
