<svg width="24" height="25" viewBox="0 0 24 25" fill="none" xmlns="http://www.w3.org/2000/svg">
<path opacity="0.4" fill-rule="evenodd" clip-rule="evenodd" d="M15.7926 8.68229L9.29256 11.6818L8.66406 10.3198L15.1641 7.32031L15.7926 8.68229ZM9.29256 12.8203L15.7926 15.8198L15.1641 17.1818L8.66406 14.1823L9.29256 12.8203Z" fill="#333333"/>
<path d="M18.25 14C20.3211 14 22 15.6789 22 17.75C22 19.8211 20.3211 21.5 18.25 21.5C16.1789 21.5 14.5 19.8211 14.5 17.75C14.5 15.6789 16.1789 14 18.25 14ZM18.25 15.5C17.0074 15.5 16 16.5074 16 17.75C16 18.9926 17.0074 20 18.25 20C19.4926 20 20.5 18.9926 20.5 17.75C20.5 16.5074 19.4926 15.5 18.25 15.5ZM6.25 8.5C8.32107 8.5 10 10.1789 10 12.25C10 14.3211 8.32107 16 6.25 16C4.17893 16 2.5 14.3211 2.5 12.25C2.5 10.1789 4.17893 8.5 6.25 8.5ZM6.25 10C5.00736 10 4 11.0074 4 12.25C4 13.4926 5.00736 14.5 6.25 14.5C7.49264 14.5 8.5 13.4926 8.5 12.25C8.5 11.0074 7.49264 10 6.25 10ZM18.25 3C20.3211 3 22 4.67893 22 6.75C22 8.82107 20.3211 10.5 18.25 10.5C16.1789 10.5 14.5 8.82107 14.5 6.75C14.5 4.67893 16.1789 3 18.25 3ZM18.25 4.5C17.0074 4.5 16 5.50736 16 6.75C16 7.99264 17.0074 9 18.25 9C19.4926 9 20.5 7.99264 20.5 6.75C20.5 5.50736 19.4926 4.5 18.25 4.5Z" fill="#333333"/>
</svg>
