<svg width="32" height="32" viewBox="0 0 32 32" fill="none" xmlns="http://www.w3.org/2000/svg">
<path d="M4.58496 1.66699C6.42018 1.66716 8.0196 2.9159 8.46484 4.69629L8.47168 4.7207L9.09082 7.67188L26.6914 7.67188C27.1681 7.68065 27.6779 7.70565 28.1348 7.82617C28.6442 7.96063 29.1475 8.22946 29.5215 8.74414C29.9809 9.37655 30.029 10.081 29.9883 10.6729C29.9505 11.2219 29.8167 11.8884 29.6709 12.6123L29.6553 12.6895C29.1183 15.3565 28.5765 17.9632 27.2793 19.8564C26.6005 20.8471 25.7125 21.6558 24.5312 22.2041C23.365 22.7453 21.9816 23.001 20.3506 23.001L11.2383 23.001C10.4606 23.024 9.74983 23.5493 9.46484 24.333L23.333 24.333C24.9898 24.333 26.3328 25.6763 26.333 27.333C26.333 28.9899 24.9899 30.333 23.333 30.333C21.6763 30.3328 20.333 28.9898 20.333 27.333C20.333 27.2204 20.3404 27.1094 20.3525 27H16.9814C16.9935 27.1093 17 27.2204 17 27.333C17 28.9899 15.6569 30.333 14 30.333C12.3431 30.333 11 28.9899 11 27.333C11 27.2204 11.0065 27.1093 11.0186 27H8.54883C7.45887 27 6.66724 26.0957 6.66699 25.0957C6.66699 23.2931 7.6542 21.6823 9.13867 20.877L5.87305 5.32324C5.7177 4.74067 5.18961 4.33317 4.58496 4.33301H3.33301C2.59678 4.33283 2 3.73627 2 3C2 2.26373 2.59678 1.66717 3.33301 1.66699H4.58496ZM14 26.333C13.4478 26.333 13.0002 26.7809 13 27.333C13 27.8853 13.4477 28.333 14 28.333C14.5523 28.333 15 27.8853 15 27.333C14.9998 26.7809 14.5522 26.333 14 26.333ZM23.333 26.333C22.781 26.3332 22.3332 26.781 22.333 27.333C22.333 27.8852 22.7809 28.3328 23.333 28.333C23.8853 28.333 24.333 27.8853 24.333 27.333C24.3328 26.7809 23.8852 26.333 23.333 26.333Z" fill="#113478"/>
</svg>
