<svg width="32" height="32" viewBox="0 0 32 32" fill="none" xmlns="http://www.w3.org/2000/svg">
<path d="M4.58496 1.66699C6.26732 1.66716 7.73356 2.81217 8.1416 4.44434L8.14648 4.46289L8.81934 7.66699L25.9307 7.66699C26.6021 7.66689 27.2201 7.66677 27.7139 7.74512C28.2669 7.83292 28.8441 8.04422 29.252 8.60547C29.6445 9.1457 29.6947 9.75712 29.6562 10.3164C29.62 10.8432 29.4892 11.4906 29.3408 12.2275L29.3281 12.2891C28.7875 14.9747 28.2551 17.5078 27.0039 19.334C26.3557 20.28 25.5125 21.0467 24.3906 21.5674C23.2799 22.0828 21.9478 22.333 20.3506 22.333L11.291 22.333C10.1945 22.3332 9.22854 23.1705 9.03516 24.333L23.333 24.333C24.9898 24.333 26.3328 25.6763 26.333 27.333C26.333 28.9899 24.9899 30.333 23.333 30.333C21.6763 30.3328 20.333 28.9898 20.333 27.333C20.333 26.9819 20.397 26.6461 20.5078 26.333H16.8252C16.9361 26.6461 17 26.9819 17 27.333C17 28.9899 15.6569 30.333 14 30.333C12.3431 30.333 11 28.9899 11 27.333C11 26.9819 11.0639 26.6461 11.1748 26.333H8.54883C7.65549 26.333 7 25.5907 7 24.7617C7.00007 22.9908 8.01961 21.4285 9.51758 20.7266L7.05176 8.98242C7.0277 8.91013 7.01085 8.83443 7.00391 8.75586L6.19727 4.91309C6.00618 4.17994 5.34398 3.66716 4.58496 3.66699L3.33301 3.66699C2.78098 3.66682 2.33318 3.21902 2.33301 2.66699C2.33301 2.11482 2.78087 1.66717 3.33301 1.66699H4.58496ZM14 26.333C13.4478 26.333 13.0002 26.7809 13 27.333C13 27.8853 13.4477 28.333 14 28.333C14.5523 28.333 15 27.8853 15 27.333C14.9998 26.7809 14.5522 26.333 14 26.333ZM23.333 26.333C22.781 26.3332 22.3332 26.781 22.333 27.333C22.333 27.8852 22.7809 28.3328 23.333 28.333C23.8853 28.333 24.333 27.8853 24.333 27.333C24.3328 26.7809 23.8852 26.333 23.333 26.333ZM11.4785 20.333L20.3506 20.333C21.7451 20.333 22.7716 20.1136 23.5488 19.7529C24.3145 19.3975 24.8895 18.8818 25.3545 18.2031C26.3299 16.7793 26.8052 14.6911 27.3682 11.8945C27.5329 11.0764 27.6349 10.5593 27.6611 10.1787C27.6735 9.99928 27.6645 9.89615 27.6533 9.83887C27.6455 9.79918 27.6374 9.78585 27.6348 9.78223C27.6336 9.78159 27.6317 9.78118 27.6299 9.78027C27.6082 9.76929 27.5447 9.74263 27.4004 9.71973C27.0824 9.66929 26.6262 9.66699 25.8584 9.66699L9.23926 9.66699L11.4785 20.333Z" fill="#113478"/>
</svg>
