<svg width="32" height="32" viewBox="0 0 32 32" fill="none" xmlns="http://www.w3.org/2000/svg">
<g clip-path="url(#clip0_724_14058)">
<path d="M26.8975 -0.000976562C29.7119 -0.000976562 32 2.2784 32 5.10152V26.9053C32 29.7196 29.7206 32.0078 26.8975 32.0078H5.1025C2.28813 32.0078 0 29.7284 0 26.9053V5.10152C0 2.28715 2.27938 -0.000976562 5.1025 -0.000976562H26.8975Z" fill="#637174"/>
<path d="M16.1138 27.0018C16.0525 27.0018 15.9913 27.0018 15.9381 26.993C15.9031 26.993 15.8594 27.0018 15.8244 27.0018C14.4394 27.0018 13.545 26.3705 12.6856 25.7655C12.0894 25.3449 11.5281 24.9499 10.8706 24.8362C10.5463 24.7837 10.2306 24.7574 9.915 24.7574C9.35375 24.7574 8.91563 24.8449 8.59125 24.9062C8.39813 24.9412 8.22313 24.9762 8.1 24.9762C7.96875 24.9762 7.81938 24.9499 7.75813 24.7305C7.70563 24.5462 7.66188 24.3624 7.62688 24.1868C7.53063 23.7399 7.46 23.4593 7.2675 23.433C5.06688 23.0912 4.43563 22.6262 4.29563 22.3018C4.27813 22.258 4.26063 22.2055 4.26063 22.1618C4.25188 22.0393 4.33938 21.9249 4.47125 21.9074C7.85563 21.3462 9.37188 17.8918 9.4425 17.743L9.45125 17.7343C9.66188 17.3137 9.69688 16.9543 9.57375 16.6474C9.33688 16.1037 8.58313 15.8587 8.08313 15.7005C7.96063 15.6655 7.84625 15.6218 7.75 15.5868C6.75063 15.1924 6.66313 14.7893 6.70688 14.5787C6.77688 14.228 7.24188 13.9824 7.6275 13.9824C7.7325 13.9824 7.82063 13.9999 7.89938 14.0349C8.34625 14.2455 8.75875 14.3505 9.10938 14.3505C9.59188 14.3505 9.80188 14.1487 9.82813 14.1224C9.81938 13.8943 9.80188 13.658 9.78438 13.4037C9.67938 11.7993 9.55625 9.81805 10.065 8.67805C11.5819 5.27617 14.7994 5.01367 15.755 5.01367C15.7813 5.01367 16.1756 5.01367 16.1756 5.01367H16.2281C17.1838 5.01367 20.41 5.2768 21.9269 8.6868C22.4356 9.8268 22.3038 11.8168 22.2075 13.4124V13.4824C22.19 13.7018 22.1813 13.9205 22.1725 14.1312C22.1988 14.1574 22.3919 14.3418 22.83 14.3593C23.1631 14.3505 23.5488 14.2368 23.97 14.0437C24.0925 13.9824 24.2331 13.9737 24.3206 13.9737C24.4606 13.9737 24.61 13.9999 24.7238 14.0524H24.7325C25.0744 14.1749 25.2938 14.4118 25.3025 14.6574C25.3113 14.8943 25.1269 15.2449 24.2506 15.5955C24.1631 15.6305 24.04 15.6655 23.9175 15.7093C23.4175 15.8668 22.655 16.1124 22.4269 16.6562C22.3044 16.9543 22.3394 17.3224 22.5494 17.743L22.5581 17.7518C22.6194 17.9005 24.1363 21.3549 27.5294 21.9162C27.6519 21.9337 27.74 22.0474 27.74 22.1793C27.74 22.223 27.7225 22.2755 27.705 22.3193C27.565 22.6437 26.9338 23.108 24.7331 23.4505C24.5488 23.4768 24.4875 23.7137 24.3738 24.2043C24.3388 24.3799 24.295 24.5549 24.2425 24.748C24.1988 24.9055 24.0938 24.9849 23.9269 24.9849H23.9006C23.7869 24.9849 23.62 24.9674 23.4094 24.9237C23.0325 24.8537 22.6206 24.7837 22.0856 24.7837C21.7788 24.7837 21.4544 24.8099 21.13 24.8624C20.4725 24.9762 19.9113 25.3712 19.315 25.7918C18.4025 26.3705 17.5081 27.0018 16.1138 27.0018Z" fill="white"/>
<path d="M16.2019 5.2416C17.105 5.2416 20.2087 5.48723 21.6725 8.76598C22.155 9.8441 22.0319 11.7991 21.9356 13.3772C21.9181 13.6229 21.9006 13.8685 21.8919 14.096L21.8831 14.1922L21.9531 14.2622C21.9794 14.2885 22.2337 14.5516 22.7862 14.5779H22.795H22.8037C23.1719 14.5604 23.5838 14.4466 24.04 14.236C24.11 14.201 24.1975 14.1922 24.2856 14.1922C24.3906 14.1922 24.505 14.2097 24.6012 14.2535L24.6187 14.2622C24.8556 14.341 25.0219 14.4991 25.0219 14.6391C25.0219 14.7179 24.9606 15.0072 24.1275 15.3404C24.0487 15.3754 23.9344 15.4104 23.8119 15.4454C23.2681 15.621 22.4444 15.8835 22.1637 16.5322C22.0063 16.9004 22.05 17.3391 22.2862 17.821C22.3825 18.0491 23.9431 21.556 27.4412 22.1341C27.4412 22.1516 27.4325 22.1691 27.4237 22.1866C27.3625 22.3266 26.9856 22.8091 24.6444 23.1685C24.2762 23.221 24.1887 23.6329 24.0831 24.1154C24.0481 24.291 24.0044 24.4572 23.9519 24.6416C23.9344 24.6941 23.9344 24.7029 23.8731 24.7029C23.8644 24.7029 23.8556 24.7029 23.8469 24.7029C23.7419 24.7029 23.5837 24.6854 23.4 24.6416C23.0669 24.5804 22.6112 24.4929 22.0325 24.4929C21.7081 24.4929 21.375 24.5191 21.0331 24.5804C20.3144 24.7029 19.7269 25.1154 19.1131 25.5535C18.28 26.141 17.4213 26.746 16.115 26.746C16.0625 26.746 16.0013 26.746 15.9481 26.7372H15.9306H15.9131C15.8781 26.7372 15.8519 26.7372 15.8169 26.7372C14.5106 26.7372 13.6513 26.1322 12.8188 25.5447C12.1963 25.1066 11.6175 24.6941 10.8988 24.5716C10.5656 24.5191 10.2238 24.4841 9.89938 24.4841C9.32063 24.4841 8.865 24.5716 8.53188 24.6416C8.3475 24.6766 8.19 24.7116 8.085 24.7116C7.9975 24.7116 7.9975 24.7029 7.98 24.6416C7.9275 24.466 7.8925 24.2822 7.84875 24.1154C7.74375 23.6329 7.65563 23.221 7.2875 23.1685C4.93813 22.8091 4.56063 22.3179 4.50813 22.1866C4.49938 22.1691 4.49063 22.1429 4.49063 22.1254C7.98875 21.5466 9.54938 18.0485 9.64563 17.8122C9.8825 17.321 9.92625 16.8916 9.76813 16.5235C9.4875 15.8747 8.66375 15.6116 8.12 15.4366C7.9975 15.4016 7.88313 15.3666 7.80438 15.3316C7.09438 15.051 6.875 14.7704 6.91 14.6041C6.945 14.411 7.28688 14.2097 7.585 14.2097C7.655 14.2097 7.7075 14.2185 7.75188 14.2447C8.23438 14.4729 8.6725 14.5866 9.06688 14.5866C9.67188 14.5866 9.94375 14.306 9.97875 14.271L10.0488 14.201L10.04 14.1047C10.0313 13.8766 10.0138 13.6316 9.99625 13.386C9.9 11.8166 9.77688 9.8616 10.2594 8.77473C11.7131 5.50473 14.8075 5.25035 15.7194 5.25035C15.7456 5.25035 16.14 5.25035 16.14 5.25035C16.1669 5.2416 16.1844 5.2416 16.2019 5.2416ZM16.2019 4.75098C16.1844 4.75098 16.1581 4.75098 16.1406 4.75098C16.1406 4.75098 15.755 4.75098 15.7288 4.75098C14.7381 4.75098 11.3975 5.02285 9.82 8.56473C9.285 9.75723 9.41688 11.7822 9.52188 13.4041C9.53063 13.5972 9.54813 13.7985 9.55688 13.9829C9.47813 14.0266 9.32875 14.0879 9.0925 14.0879C8.77688 14.0879 8.40875 13.9916 7.98813 13.7897C7.87438 13.7372 7.75125 13.711 7.61125 13.711C7.12 13.711 6.54188 14.0354 6.445 14.5085C6.38375 14.8504 6.5325 15.3591 7.64625 15.7972C7.7425 15.841 7.86563 15.876 7.99688 15.911C8.4525 16.0597 9.14563 16.2791 9.33813 16.7179C9.43438 16.946 9.39938 17.2441 9.22438 17.5947C9.22438 17.6035 9.21563 17.6122 9.21563 17.621C9.15438 17.761 7.69 21.1016 4.4375 21.6366C4.18313 21.6804 4.00813 21.8997 4.02563 22.1541C4.02563 22.2329 4.05188 22.3029 4.07813 22.3735C4.32375 22.9435 5.34938 23.3641 7.22563 23.6535C7.28688 23.741 7.35688 24.0391 7.3925 24.2235C7.4275 24.4079 7.47125 24.5916 7.5325 24.7847C7.585 24.9778 7.73438 25.2054 8.11125 25.2054C8.26 25.2054 8.44438 25.1704 8.655 25.1266C8.97063 25.0653 9.39125 24.9866 9.935 24.9866C10.2331 24.9866 10.54 25.0129 10.8469 25.0654C11.4519 25.1704 11.9694 25.5297 12.565 25.951C13.4156 26.556 14.38 27.2397 15.8525 27.2397C15.8963 27.2397 15.9313 27.2397 15.975 27.2397C16.0188 27.2397 16.08 27.2397 16.1506 27.2397C17.615 27.2397 18.5881 26.556 19.4381 25.951C20.0344 25.5303 20.5513 25.1622 21.1562 25.0654C21.4631 25.0129 21.77 24.9866 22.0681 24.9866C22.5769 24.9866 22.98 25.0479 23.3481 25.1179C23.5763 25.1616 23.76 25.1879 23.8919 25.1879H23.9094H23.9269C24.2075 25.1879 24.4 25.0391 24.4794 24.776C24.5319 24.5829 24.5756 24.3991 24.6194 24.2235C24.6631 24.0391 24.7244 23.741 24.7862 23.6622C26.6625 23.3729 27.6881 22.9522 27.9338 22.3822C27.9688 22.3122 27.9862 22.2335 27.9862 22.1541C28.0037 21.8997 27.8194 21.681 27.5744 21.6366C24.3219 21.1016 22.8575 17.7616 22.7962 17.621C22.7962 17.6122 22.7875 17.6035 22.7875 17.5947C22.6119 17.2441 22.5769 16.946 22.6737 16.7179C22.8581 16.2797 23.5506 16.0516 24.015 15.911C24.1462 15.8672 24.2606 15.8322 24.3656 15.7972C25.1812 15.4729 25.5844 15.0872 25.5756 14.631C25.5669 14.2716 25.2863 13.956 24.8481 13.7979C24.6994 13.7366 24.5238 13.7016 24.3481 13.7016C24.2256 13.7016 24.05 13.7191 23.8925 13.7979C23.5069 13.9822 23.1562 14.0785 22.8581 14.0872C22.6562 14.0785 22.5338 14.026 22.455 13.991C22.4638 13.8241 22.4725 13.6579 22.49 13.4822V13.4122C22.595 11.7816 22.7181 9.76535 22.1919 8.57285C20.5413 5.02285 17.1925 4.75098 16.2019 4.75098Z" fill="#637174"/>
</g>
<defs>
<clipPath id="clip0_724_14058">
<rect width="32" height="32" fill="white"/>
</clipPath>
</defs>
</svg>
