<svg width="16" height="16" viewBox="0 0 16 16" fill="none" xmlns="http://www.w3.org/2000/svg">
<path fill-rule="evenodd" clip-rule="evenodd" d="M8.71367 2.51862C8.71375 2.51878 8.71359 2.51846 8.71367 2.51862L9.88562 4.88189C10.01 5.13687 10.2181 5.35527 10.4324 5.51548C10.6472 5.67602 10.9144 5.81272 11.1899 5.85988L11.1916 5.86018L13.3178 6.21635C13.9091 6.31571 14.1033 6.5504 14.1489 6.6942C14.195 6.8399 14.17 7.14773 13.7456 7.57567L12.0925 9.24248C11.878 9.45875 11.7347 9.74772 11.6557 10.0259C11.5766 10.3045 11.5471 10.6244 11.6127 10.9196L11.6135 10.9229L12.0868 12.9862C12.2634 13.7558 12.085 14.0396 11.9928 14.1074C11.9032 14.1734 11.585 14.2601 10.9111 13.8568L8.91421 12.6649C8.63661 12.5021 8.304 12.4349 7.99878 12.4349C7.69408 12.4349 7.36131 12.5019 7.0851 12.6669C7.08516 12.6668 7.08503 12.6669 7.0851 12.6669L5.09239 13.8563C5.09248 13.8562 5.0923 13.8563 5.09239 13.8563C4.41285 14.2609 4.09505 14.1745 4.00705 14.1098C3.91696 14.0436 3.7386 13.7615 3.91588 12.9858L4.38983 10.9196C4.45544 10.6244 4.42598 10.3045 4.34689 10.0259C4.26791 9.74772 4.12461 9.45875 3.91011 9.24248L2.25696 7.57566L2.25576 7.57446C1.82854 7.14664 1.80482 6.83962 1.85089 6.6951C1.89686 6.5509 2.09298 6.31579 2.68474 6.21635L4.81092 5.86018C5.08918 5.81342 5.35854 5.67724 5.57503 5.51618C5.7908 5.35565 5.99912 5.13702 6.12361 4.88189L7.29648 2.51675C7.57798 1.94611 7.86349 1.83276 8.00211 1.83276C8.14161 1.83276 8.42892 1.94766 8.71367 2.51862ZM6.39982 2.07404C6.75159 1.36112 7.3026 0.832764 8.00211 0.832764C8.70082 0.832764 9.25354 1.36015 9.60863 2.07248L9.6091 2.07341L10.7823 4.43921L10.7841 4.44287C10.8198 4.51633 10.9044 4.61979 11.0312 4.71455C11.1577 4.80913 11.2801 4.8606 11.358 4.87411C11.3582 4.87415 11.3584 4.87419 11.3586 4.87422L13.4833 5.23014C14.2519 5.3593 14.8944 5.73626 15.1022 6.39227C15.3094 7.04637 15.0044 7.72652 14.4556 8.27986L12.8025 9.94667C12.737 10.0127 12.6636 10.137 12.6176 10.2991C12.572 10.46 12.5679 10.6066 12.5886 10.7013C12.5887 10.7017 12.5888 10.7021 12.5889 10.7026L13.0614 12.7626C13.0614 12.7626 13.0614 12.7626 13.0614 12.7626C13.2581 13.6195 13.1899 14.4682 12.5854 14.9129C11.9785 15.3594 11.1501 15.1652 10.3976 14.7149L8.40821 13.5275C8.40779 13.5272 8.40737 13.527 8.40695 13.5268C8.3178 13.4749 8.17102 13.4349 7.99878 13.4349C7.82527 13.4349 7.68151 13.4754 7.59781 13.5254L5.6045 14.7152C4.85106 15.1639 4.0217 15.3617 3.41479 14.9156C2.80996 14.471 2.74501 13.6206 2.94102 12.763L3.41365 10.7026C3.41375 10.7021 3.41384 10.7017 3.41394 10.7013C3.43466 10.6066 3.4306 10.46 3.38491 10.2991C3.33892 10.137 3.26557 10.0127 3.2001 9.94667L1.54815 8.28107C1.54797 8.28089 1.54779 8.28071 1.54761 8.28053C0.995275 7.72717 0.689304 7.04642 0.898134 6.39136C1.10714 5.73576 1.75093 5.35925 2.51902 5.23018L4.64545 4.87397C4.72714 4.86024 4.85133 4.80819 4.97813 4.71386C5.10507 4.61942 5.18952 4.51618 5.22513 4.44287L6.39982 2.07404C6.39977 2.07414 6.39987 2.07394 6.39982 2.07404Z" fill="#FFCC00"/>
</svg>
