<svg width="16" height="16" viewBox="0 0 16 16" fill="none" xmlns="http://www.w3.org/2000/svg">
<path opacity="0.4" d="M8.00211 0.832764C7.3026 0.832764 6.75159 1.36112 6.39982 2.07404L5.22513 4.44287C5.18952 4.51618 5.10507 4.61942 4.97813 4.71386C4.85133 4.80819 4.72714 4.86024 4.64545 4.87397L2.51902 5.23018C1.75093 5.35925 1.10714 5.73576 0.898134 6.39136C0.689304 7.04642 0.995275 7.72717 1.54761 8.28053L1.54815 8.28107L3.2001 9.94667C3.26557 10.0127 3.33892 10.137 3.38491 10.2991C3.4306 10.46 3.43466 10.6066 3.41394 10.7013L3.41365 10.7026L2.94102 12.763C2.74501 13.6206 2.80996 14.471 3.41479 14.9156C4.0217 15.3617 4.85106 15.1639 5.6045 14.7152L7.59781 13.5254C7.68151 13.4754 7.82527 13.4349 7.99878 13.4349C8.17102 13.4349 8.3178 13.4749 8.40695 13.5268L8.40821 13.5275L10.3976 14.7149C11.1501 15.1652 11.9785 15.3594 12.5854 14.9129C13.1899 14.4682 13.2581 13.6195 13.0614 12.7626L12.5889 10.7026L12.5886 10.7013C12.5679 10.6066 12.572 10.46 12.6176 10.2991C12.6636 10.137 12.737 10.0127 12.8025 9.94667L14.4556 8.27986C15.0044 7.72652 15.3094 7.04637 15.1022 6.39227C14.8944 5.73626 14.2519 5.3593 13.4833 5.23014L11.3586 4.87422L11.358 4.87411C11.2801 4.8606 11.1577 4.80913 11.0312 4.71455C10.9044 4.61979 10.8198 4.51633 10.7841 4.44287L10.7823 4.43921L9.6091 2.07341L9.60863 2.07248C9.25354 1.36015 8.70082 0.832764 8.00211 0.832764Z" fill="#FFCC00"/>
<path d="M9.60863 2.07248C9.25354 1.36015 8.70082 0.832764 8.00211 0.832764V13.4349C8.17292 13.4354 8.31838 13.4752 8.40695 13.5268L8.40821 13.5275L10.3976 14.7149C11.1501 15.1652 11.9785 15.3594 12.5854 14.9129C13.1899 14.4682 13.2581 13.6195 13.0614 12.7626L12.5889 10.7026L12.5886 10.7013C12.5679 10.6065 12.572 10.46 12.6176 10.2991C12.6636 10.137 12.737 10.0127 12.8025 9.94667L14.4556 8.27986C15.0044 7.72652 15.3094 7.04637 15.1022 6.39227C14.8944 5.73626 14.2519 5.3593 13.4833 5.23014L11.3586 4.87422L11.358 4.87411C11.2801 4.8606 11.1577 4.80913 11.0312 4.71455C10.9044 4.61979 10.8198 4.51633 10.7841 4.44287L10.7823 4.43921L9.6091 2.07341L9.60863 2.07248Z" fill="#FFCC00"/>
</svg>
