<svg width="100" height="96" viewBox="0 0 100 96" fill="none" xmlns="http://www.w3.org/2000/svg">
<path d="M100 47.8539C100 52.9401 93.6313 56.9577 92.1413 61.5471C90.5968 66.3038 93.3341 73.2872 90.4527 77.2464C87.5425 81.2451 80.0356 80.7857 76.0367 83.6959C72.0775 86.5773 70.2109 93.8747 65.4543 95.4191C60.8649 96.9093 55.0862 92.1514 50.0001 92.1514C44.9139 92.1514 39.1353 96.9093 34.5458 95.4191C29.7892 93.8747 27.9225 86.5773 23.9633 83.6959C19.9645 80.7857 12.4575 81.2453 9.54729 77.2465C6.66587 73.2873 9.40319 66.3039 7.85885 61.5472C6.36869 56.9578 0 52.9402 0 47.8541C0 42.7679 6.36869 38.7503 7.85885 34.1609C9.40332 29.4042 6.66599 22.4208 9.54742 18.4616C12.4576 14.4628 19.9645 14.9223 23.9634 12.0122C27.9226 9.13079 29.7893 1.83345 34.5458 0.288982C39.1353 -1.20118 44.9139 3.55673 50.0001 3.55673C55.0862 3.55673 60.8649 -1.20118 65.4543 0.288982C70.211 1.83345 72.0776 9.13079 76.0369 12.0122C80.0356 14.9224 87.5426 14.4628 90.4528 18.4617C93.3343 22.421 90.5969 29.4043 92.1413 34.161C93.6314 38.7502 100 42.7678 100 47.8539Z" fill="url(#paint0_linear_3701_17124)"/>
<path d="M43.7307 66.8038L29.9408 54.2722L34.9498 48.7601L42.9249 56.0074L61.6689 33.0249L67.4408 37.7323L43.7307 66.8038Z" fill="#FCFCFC"/>
<defs>
<linearGradient id="paint0_linear_3701_17124" x1="0" y1="47.8541" x2="100" y2="47.8541" gradientUnits="userSpaceOnUse">
<stop stop-color="#00A640"/>
<stop offset="1" stop-color="#00D050"/>
</linearGradient>
</defs>
</svg>
