<svg width="64" height="64" viewBox="0 0 64 64" fill="none" xmlns="http://www.w3.org/2000/svg">
<g clip-path="url(#clip0_1044_6787)">
<path d="M31.9961 63.999C49.6692 63.999 63.9961 49.6721 63.9961 31.999C63.9961 14.3259 49.6692 -0.000976562 31.9961 -0.000976562C14.323 -0.000976562 -0.00390625 14.3259 -0.00390625 31.999C-0.00390625 49.6721 14.323 63.999 31.9961 63.999Z" fill="#BBEC6C"/>
<path d="M31.995 -0.000976562C31.346 -0.000976562 30.7021 0.0206572 30.0626 0.0587739C46.8357 1.05818 59.3088 14.9749 59.3088 31.999C59.3088 49.0232 46.8356 62.9399 30.0625 63.9393C30.7021 63.9774 31.346 63.999 31.995 63.999C49.6681 63.999 63.995 49.6722 63.995 31.999C63.995 14.3259 49.6681 -0.000976562 31.995 -0.000976562Z" fill="#A2E62E"/>
<path d="M31.9935 59.3127C47.0785 59.3127 59.3074 47.0839 59.3074 31.9989C59.3074 16.9139 47.0785 4.68506 31.9935 4.68506C16.9085 4.68506 4.67969 16.9139 4.67969 31.9989C4.67969 47.0839 16.9085 59.3127 31.9935 59.3127Z" fill="#4FC123"/>
<path d="M31.9949 4.68506C31.3451 4.68506 30.701 4.7094 30.0625 4.75395C44.2456 5.7455 55.444 17.5637 55.444 31.9989C55.444 46.4342 44.2456 58.2523 30.0625 59.2438C30.701 59.2885 31.3451 59.3127 31.9949 59.3127C47.0799 59.3127 59.3087 47.0838 59.3087 31.9989C59.3087 16.914 47.0799 4.68506 31.9949 4.68506Z" fill="#47A920"/>
<path d="M48.515 26.5073L31.0804 43.9431C29.2313 45.791 26.236 45.791 24.3881 43.9431L15.4719 35.0269C14.4469 34.0031 14.4469 32.3419 15.4719 31.3182L18.0705 28.7196V28.7183L18.9513 27.8375C19.9751 26.8137 21.6362 26.8137 22.66 27.8375L27.122 32.2994C27.601 32.7798 28.3801 32.7798 28.8591 32.2994L41.5831 19.5754C42.6069 18.5517 44.268 18.5517 45.2918 19.5754L48.515 22.7986C49.54 23.8236 49.54 25.4835 48.515 26.5073Z" fill="#D1F19E"/>
<path d="M28.855 32.3001L27.378 33.7771C26.7959 34.3605 25.852 34.3643 25.2635 33.7861L20.7475 29.3525C20.0225 28.6262 18.9781 28.4176 18.0664 28.7202V28.7189L18.9472 27.8381C19.971 26.8144 21.6321 26.8144 22.6559 27.8381L27.1178 32.3001C27.5969 32.7804 28.3759 32.7804 28.855 32.3001Z" fill="#BBEC6C"/>
<path d="M48.517 22.7996L45.2936 19.5762C44.2694 18.5521 42.609 18.5521 41.5849 19.5762L40.7515 20.4096C41.5017 20.3397 42.2763 20.5916 42.8506 21.166L44.6521 22.7998C45.6763 23.8239 45.6763 25.4843 44.6521 26.5084L28.6627 42.7078C27.5211 43.8493 25.9414 44.2847 24.4648 44.0158C26.318 45.7905 29.2581 45.7674 31.0814 43.9441L48.5171 26.5084C49.5411 25.4843 49.5411 23.8238 48.517 22.7996Z" fill="#BBEC6C"/>
</g>
<defs>
<clipPath id="clip0_1044_6787">
<rect width="64" height="64" fill="white" transform="translate(0 -0.000488281)"/>
</clipPath>
</defs>
</svg>
