<svg width="32" height="32" viewBox="0 0 32 32" fill="none" xmlns="http://www.w3.org/2000/svg">
<path fill-rule="evenodd" clip-rule="evenodd" d="M16 4.09387C11.1608 4.09387 7.53829 7.21174 7.11202 10.8221C7.2938 10.9001 7.469 10.9802 7.62775 11.0528C8.15783 11.2897 9.15733 11.7362 9.53802 12.863C9.67647 13.2728 9.67539 13.711 9.67438 14.1186V20.8592C9.67539 21.2669 9.67647 21.705 9.53802 22.1148C9.15733 23.2416 8.15784 23.6882 7.62775 23.925C7.08763 24.1722 6.35718 24.5056 5.8248 24.5487C5.23338 24.5965 4.63463 24.4702 4.11513 24.1786C3.64333 23.9138 3.28912 23.4817 2.93035 23.0439C2.80062 22.8864 2.55505 22.5967 2.38256 22.3968L2.38254 22.3968L2.38253 22.3968L2.38246 22.3967C2.06714 22.0313 1.7092 21.6165 1.414 21.2302C0.926343 20.592 0.437678 19.8273 0.194937 18.9387C-0.064979 17.9873 -0.064979 16.9906 0.194937 16.0391C0.371079 15.3944 0.689772 14.8254 1.11046 14.2282C1.51787 13.6498 2.21173 12.8021 2.89043 11.9778L2.89045 11.9777C2.99987 11.839 3.1503 11.6482 3.26153 11.5208C3.46297 11.2901 3.74171 11.0088 4.11513 10.7992L4.12211 10.7953C4.55956 5.2094 9.91345 1.11719 16 1.11719C22.0866 1.11719 27.4404 5.20941 27.8779 10.7953L27.8849 10.7992C28.2583 11.0088 28.537 11.2901 28.7385 11.5208C28.8497 11.6482 29.0001 11.839 29.1095 11.9777L29.1096 11.9778C29.7883 12.8021 30.4821 13.6498 30.8895 14.2282C31.3102 14.8254 31.6289 15.3944 31.8051 16.0391C32.065 16.9906 32.065 17.9873 31.8051 18.9387C31.5623 19.8273 31.0737 20.592 30.586 21.2302C30.2908 21.6165 29.9328 22.0313 29.6175 22.3967L29.6175 22.3968L29.6174 22.3968C29.445 22.5967 29.1994 22.8864 29.0696 23.0439L29.0696 23.044C28.7164 23.4749 28.3676 23.9004 27.9067 24.1662V24.633C27.9067 28.3781 24.2479 30.884 20.465 30.884H17.4883C16.6664 30.884 16 30.2176 16 29.3957C16 28.5737 16.6664 27.9073 17.4883 27.9073H20.465C23.2581 27.9073 24.93 26.1486 24.93 24.633V24.1737C24.7333 24.0901 24.5432 24.0033 24.3722 23.925C23.8422 23.6882 22.8427 23.2416 22.462 22.1148C22.3235 21.705 22.3246 21.2669 22.3256 20.8592L22.3256 14.1186C22.3246 13.711 22.3235 13.2728 22.462 12.863C22.8427 11.7362 23.8422 11.2897 24.3722 11.0528C24.531 10.9802 24.7062 10.9001 24.888 10.8221C24.4617 7.21174 20.8392 4.09387 16 4.09387Z" fill="#113478"/>
</svg>
