<svg width="32" height="32" viewBox="0 0 32 32" fill="none" xmlns="http://www.w3.org/2000/svg">
<g clip-path="url(#clip0_724_14063)">
<path fill-rule="evenodd" clip-rule="evenodd" d="M0 32H32V0H0V32Z" fill="#637174"/>
<path fill-rule="evenodd" clip-rule="evenodd" d="M20.08 4.88013C19.9733 4.4268 19.8933 3.9468 19.8933 3.4668H15.8933V11.4668V12.7735V19.6268C15.8933 21.4935 14.2933 23.0135 12.4267 23.0135C10.56 23.0135 9.06667 21.5201 9.06667 19.6535C9.06667 17.7868 10.5867 16.2668 12.4533 16.2668C12.8267 16.2668 13.1733 16.3201 13.52 16.4268V12.0801C13.1733 12.0268 12.8267 12.0001 12.4533 12.0001C8.21334 12.0001 4.8 15.4135 4.8 19.6535C4.8 23.8668 8.21334 27.3068 12.4533 27.3068C16.6133 27.3068 20.08 23.9735 20.1867 19.8401V19.6535V11.5468C21.76 12.6135 23.5733 13.2535 25.6 13.2535V9.1468C22.96 9.1468 20.72 7.33346 20.08 4.88013Z" fill="#637174"/>
<path fill-rule="evenodd" clip-rule="evenodd" d="M21.4133 6.21314C21.3067 5.7598 21.2267 5.2798 21.2267 4.7998H17.2267V12.7998V14.1065V20.9598C17.2267 22.8265 15.6267 24.3465 13.76 24.3465C11.8933 24.3465 10.4 22.8531 10.4 20.9865C10.4 19.1198 11.92 17.5998 13.7867 17.5998C14.16 17.5998 14.5067 17.6531 14.8533 17.7598V13.4131C14.5067 13.3598 14.16 13.3331 13.7867 13.3331C9.54666 13.3331 6.13333 16.7465 6.13333 20.9865C6.13333 25.1998 9.54666 28.6398 13.7867 28.6398C17.9467 28.6398 21.4133 25.3065 21.52 21.1731V20.9865V12.8798C23.0933 13.9465 24.9067 14.5865 26.9333 14.5865V10.4798C24.2933 10.4798 22.0533 8.66647 21.4133 6.21314Z" fill="white"/>
<path fill-rule="evenodd" clip-rule="evenodd" d="M20.08 4.7998C20.08 4.82647 20.1067 4.85314 20.1067 4.8798C20.4533 6.18647 21.2533 7.33314 22.32 8.10647C21.92 7.54647 21.6267 6.90647 21.44 6.21314C21.3333 5.7598 21.2533 5.2798 21.2533 4.7998H20.08ZM25.6 10.3198V13.2265C23.5467 13.2265 21.76 12.5865 20.1867 11.5198V19.6265V19.8131C20.08 23.9465 16.6133 27.2798 12.4533 27.2798C10.6933 27.2798 9.03999 26.6665 7.75999 25.6798C9.14666 27.4665 11.3333 28.6131 13.7867 28.6131C17.9467 28.6131 21.4133 25.2798 21.52 21.1465V20.9598V12.8798C23.0933 13.9465 24.9067 14.5865 26.9333 14.5865V10.4798C26.48 10.4798 26.0267 10.4265 25.6 10.3198ZM13.52 13.3331V16.4265C13.1733 16.3198 12.8267 16.2665 12.4533 16.2665C10.5867 16.2665 9.06666 17.7865 9.06666 19.6531C9.06666 20.9331 9.78666 22.0265 10.8267 22.6131C10.56 22.1331 10.4 21.5731 10.4 20.9865C10.4 19.1198 11.92 17.5998 13.7867 17.5998C14.16 17.5998 14.5067 17.6531 14.8533 17.7598V13.4131C14.5067 13.3598 14.16 13.3331 13.7867 13.3331C13.68 13.3331 13.6 13.3331 13.52 13.3331Z" fill="#ECEDEE"/>
</g>
<defs>
<clipPath id="clip0_724_14063">
<rect width="32" height="32" rx="8" fill="white"/>
</clipPath>
</defs>
</svg>
