<svg width="16" height="16" viewBox="0 0 16 16" fill="none" xmlns="http://www.w3.org/2000/svg">
<path opacity="0.7" d="M11.8067 9.52671C11.8692 9.58868 11.9188 9.66242 11.9526 9.74366C11.9865 9.8249 12.0039 9.91203 12.0039 10C12.0039 10.088 11.9865 10.1752 11.9526 10.2564C11.9188 10.3377 11.8692 10.4114 11.8067 10.4734L8.47337 13.8067C8.4114 13.8692 8.33766 13.9188 8.25643 13.9526C8.17519 13.9865 8.08805 14.0039 8.00004 14.0039C7.91203 14.0039 7.8249 13.9865 7.74366 13.9526C7.66242 13.9188 7.58868 13.8692 7.52671 13.8067L4.19337 10.4734C4.13089 10.4114 4.08129 10.3377 4.04745 10.2564C4.0136 10.1752 3.99617 10.088 3.99617 10C3.99617 9.91203 4.0136 9.8249 4.04745 9.74366C4.08129 9.66242 4.13089 9.58868 4.19337 9.52671C4.25535 9.46422 4.32908 9.41463 4.41032 9.38078C4.49156 9.34693 4.5787 9.32951 4.66671 9.32951C4.75471 9.32951 4.84185 9.34693 4.92309 9.38078C5.00433 9.41463 5.07806 9.46422 5.14004 9.52671L8.00004 12.3934L10.86 9.52671C10.922 9.46422 10.9957 9.41463 11.077 9.38078C11.1582 9.34693 11.2454 9.32951 11.3334 9.32951C11.4214 9.32951 11.5085 9.34693 11.5898 9.38078C11.671 9.41463 11.7447 9.46422 11.8067 9.52671ZM8.47337 2.19337L11.8067 5.52671C11.8689 5.58887 11.9182 5.66266 11.9518 5.74387C11.9855 5.82509 12.0028 5.91213 12.0028 6.00004C12.0028 6.17758 11.9322 6.34784 11.8067 6.47337C11.7445 6.53553 11.6708 6.58484 11.5895 6.61848C11.5083 6.65212 11.4213 6.66943 11.3334 6.66943C11.1558 6.66943 10.9856 6.59891 10.86 6.47337L8.00004 3.60671L5.14004 6.47337C5.07806 6.53586 5.00433 6.58546 4.92309 6.6193C4.84185 6.65315 4.75471 6.67057 4.66671 6.67057C4.5787 6.67057 4.49156 6.65315 4.41032 6.6193C4.32908 6.58546 4.25535 6.53586 4.19337 6.47337C4.13089 6.4114 4.08129 6.33766 4.04745 6.25642C4.0136 6.17519 3.99617 6.08805 3.99617 6.00004C3.99617 5.91203 4.0136 5.8249 4.04745 5.74366C4.08129 5.66242 4.13089 5.58868 4.19337 5.52671L7.52671 2.19337C7.58868 2.13089 7.66242 2.08129 7.74366 2.04745C7.8249 2.0136 7.91203 1.99617 8.00004 1.99617C8.08805 1.99617 8.17519 2.0136 8.25643 2.04745C8.33766 2.08129 8.4114 2.13089 8.47337 2.19337Z" fill="#333333"/>
</svg>
