<svg width="32" height="32" viewBox="0 0 32 32" fill="none" xmlns="http://www.w3.org/2000/svg">
<path fill-rule="evenodd" clip-rule="evenodd" d="M1.33301 16C1.33301 7.89982 7.8995 1.33333 15.9997 1.33333C24.0999 1.33333 30.6663 7.89982 30.6663 16C30.6663 24.1002 24.0999 30.6667 15.9997 30.6667C7.8995 30.6667 1.33301 24.1002 1.33301 16ZM6.73055 8.80505C5.18606 10.7919 4.26634 13.2886 4.26634 16C4.26634 22.4801 9.51953 27.7333 15.9997 27.7333C18.7111 27.7333 21.2077 26.8136 23.1946 25.2691L6.73055 8.80505ZM8.80473 6.73087L25.2688 23.1949C26.8133 21.2081 27.733 18.7114 27.733 16C27.733 9.51985 22.4798 4.26666 15.9997 4.26666C13.2882 4.26666 10.7916 5.18638 8.80473 6.73087Z" fill="#DC2626"/>
</svg>
